M48
;DRILL file {KiCad 4.0.7} date 05/10/18 10:09:13
;FORMAT={-:-/ absolute / inch / decimal}
FMAT,2
INCH,TZ
T1C0.016
T2C0.024
T3C0.039
T4C0.040
%
G90
G05
M72
T1
X3.44Y-3.806
X3.46Y-3.482
X3.518Y-4.058
X3.6614Y-2.6772
X3.679Y-3.751
X3.68Y-3.572
X3.682Y-3.484
X3.686Y-4.153
X3.78Y-3.461
X3.789Y-2.8319
X3.8114Y-2.8004
X3.861Y-3.754
X3.877Y-3.626
X3.887Y-3.5217
X3.8969Y-3.0114
X3.916Y-3.621
X3.9461Y-3.4764
X3.948Y-3.2941
X3.967Y-3.593
X3.9945Y-3.378
X4.0039Y-3.5969
X4.0083Y-3.2626
X4.0177Y-3.4575
X4.0492Y-3.4232
X4.0799Y-3.4705
X4.0815Y-3.0374
X4.1039Y-3.0106
X4.1071Y-3.4906
X4.1339Y-3.3283
X4.137Y-3.2894
X4.1701Y-3.213
X4.1976Y-3.6091
X4.1984Y-3.1921
X4.2465Y-3.6091
X4.265Y-3.3343
X4.2736Y-2.8217
X4.2854Y-3.3091
X4.29Y-3.221
X4.292Y-3.275
X4.312Y-3.702
X4.3382Y-2.913
X4.356Y-3.701
X4.4094Y-2.9823
X4.4441Y-3.3299
X4.4587Y-2.9134
X4.4598Y-3.0465
X4.49Y-3.869
X4.5055Y-3.0201
X4.509Y-3.843
X4.5134Y-3.3024
X4.5138Y-3.6181
X4.5283Y-2.9654
X4.5315Y-2.9295
X4.5831Y-4.0945
X4.602Y-3.945
X4.654Y-3.892
X4.6555Y-2.9921
X4.713Y-3.0465
X4.7677Y-3.1171
X4.8154Y-3.2598
X4.8327Y-2.7362
X4.8539Y-3.0449
X4.8839Y-3.2969
T2
X4.8429Y-3.9287
X4.8929Y-3.8787
X4.8929Y-3.9787
T3
X4.6457Y-3.4449
X4.6457Y-3.6417
X4.8425Y-3.3465
X4.8425Y-3.5433
T4
X3.6512Y-2.8071
X3.6512Y-2.9071
X3.6512Y-3.0071
X3.6512Y-3.1071
X3.6512Y-3.2071
X3.9012Y-3.9453
X3.9012Y-4.0453
X3.9996Y-2.6461
X3.9996Y-2.7461
X4.0012Y-3.8091
X4.0012Y-3.9453
X4.0012Y-4.0453
X4.0996Y-2.6461
X4.0996Y-2.7461
X4.1012Y-3.8091
X4.1012Y-3.9453
X4.1012Y-4.0453
X4.1996Y-2.6461
X4.1996Y-2.7461
X4.2012Y-3.8091
X4.2012Y-3.9453
X4.2012Y-4.0453
X4.2996Y-2.6461
X4.2996Y-2.7461
X4.3012Y-3.8091
X4.3012Y-3.9453
X4.3012Y-4.0453
X4.3996Y-2.6461
X4.3996Y-2.7461
T0
M30
