G04 #@! TF.FileFunction,Soldermask,Top*
%FSLAX46Y46*%
G04 Gerber Fmt 4.6, Leading zero omitted, Abs format (unit mm)*
G04 Created by KiCad (PCBNEW 4.0.7) date 05/10/18 10:09:07*
%MOMM*%
%LPD*%
G01*
G04 APERTURE LIST*
%ADD10C,0.200000*%
%ADD11R,2.127200X2.432000*%
%ADD12O,2.127200X2.432000*%
%ADD13R,2.127200X2.127200*%
%ADD14O,2.127200X2.127200*%
%ADD15R,1.650000X1.900000*%
%ADD16R,1.900000X1.650000*%
%ADD17R,1.000000X1.950000*%
%ADD18R,2.432000X2.127200*%
%ADD19O,2.432000X2.127200*%
%ADD20R,1.700000X1.900000*%
%ADD21R,1.960000X1.050000*%
%ADD22R,1.050000X1.460000*%
%ADD23C,1.400760*%
%ADD24R,4.100000X1.380000*%
%ADD25C,2.400000*%
%ADD26R,1.900000X1.700000*%
%ADD27R,2.900000X2.700000*%
G04 APERTURE END LIST*
D10*
X115000000Y-68000000D02*
X115000000Y-100000000D01*
D11*
X109250000Y-96750000D03*
D12*
X106710000Y-96750000D03*
X104170000Y-96750000D03*
X101630000Y-96750000D03*
D13*
X111750000Y-69750000D03*
D14*
X111750000Y-67210000D03*
X109210000Y-69750000D03*
X109210000Y-67210000D03*
X106670000Y-69750000D03*
X106670000Y-67210000D03*
X104130000Y-69750000D03*
X104130000Y-67210000D03*
X101590000Y-69750000D03*
X101590000Y-67210000D03*
D15*
X95440000Y-79010000D03*
X95440000Y-76510000D03*
D16*
X103230000Y-93540000D03*
X100730000Y-93540000D03*
X105310000Y-93540000D03*
X107810000Y-93540000D03*
D17*
X123525000Y-75600000D03*
X122255000Y-75600000D03*
X120985000Y-75600000D03*
X119715000Y-75600000D03*
X119715000Y-81000000D03*
X120985000Y-81000000D03*
X122255000Y-81000000D03*
X123525000Y-81000000D03*
D15*
X106340000Y-79930000D03*
X106340000Y-77430000D03*
D16*
X120590000Y-72920000D03*
X123090000Y-72920000D03*
X120750000Y-103810000D03*
X118250000Y-103810000D03*
D15*
X94767400Y-90200800D03*
X94767400Y-87700800D03*
X94716600Y-98405000D03*
X94716600Y-95905000D03*
D16*
X93401200Y-104394000D03*
X90901200Y-104394000D03*
D13*
X109250000Y-102750000D03*
D14*
X109250000Y-100210000D03*
X106710000Y-102750000D03*
X106710000Y-100210000D03*
X104170000Y-102750000D03*
X104170000Y-100210000D03*
X101630000Y-102750000D03*
X101630000Y-100210000D03*
X99090000Y-102750000D03*
X99090000Y-100210000D03*
D18*
X92740000Y-81460000D03*
D19*
X92740000Y-78920000D03*
X92740000Y-76380000D03*
X92740000Y-73840000D03*
X92740000Y-71300000D03*
D20*
X97460000Y-80100000D03*
X97460000Y-77400000D03*
X89077800Y-94669600D03*
X89077800Y-91969600D03*
X87350600Y-91969600D03*
X87350600Y-94669600D03*
D21*
X89328000Y-88432600D03*
X89328000Y-89382600D03*
X89328000Y-90332600D03*
X92028000Y-90332600D03*
X92028000Y-88432600D03*
X92028000Y-89382600D03*
D22*
X89494400Y-98798200D03*
X88544400Y-98798200D03*
X87594400Y-98798200D03*
X87594400Y-100998200D03*
X89494400Y-100998200D03*
D23*
X123010000Y-99790000D03*
X124280000Y-101060000D03*
X124280000Y-98520000D03*
D24*
X92379800Y-91829800D03*
X92379800Y-94199800D03*
X92278200Y-100110200D03*
X92278200Y-102480200D03*
D25*
X123000000Y-90000000D03*
X118000000Y-92500000D03*
X123000000Y-85000000D03*
X118000000Y-87500000D03*
D20*
X96596200Y-90852000D03*
X96596200Y-93552000D03*
D26*
X92307400Y-96545400D03*
X89607400Y-96545400D03*
D16*
X118180800Y-100025200D03*
X120680800Y-100025200D03*
D20*
X96621600Y-98421200D03*
X96621600Y-101121200D03*
D26*
X118182400Y-101955600D03*
X120882400Y-101955600D03*
D27*
X92200000Y-86100000D03*
X87900000Y-86100000D03*
X117980000Y-96990000D03*
X122280000Y-96990000D03*
M02*
