G04 #@! TF.FileFunction,Legend,Top*
%FSLAX46Y46*%
G04 Gerber Fmt 4.6, Leading zero omitted, Abs format (unit mm)*
G04 Created by KiCad (PCBNEW 4.0.7) date 05/10/18 10:09:07*
%MOMM*%
%LPD*%
G01*
G04 APERTURE LIST*
%ADD10C,0.200000*%
%ADD11C,0.150000*%
%ADD12C,0.120000*%
G04 APERTURE END LIST*
D10*
D11*
X107980000Y-95480000D02*
X100360000Y-95480000D01*
X107980000Y-98020000D02*
X100360000Y-98020000D01*
X110800000Y-98300000D02*
X109250000Y-98300000D01*
X100360000Y-95480000D02*
X100360000Y-98020000D01*
X107980000Y-98020000D02*
X107980000Y-95480000D01*
X109250000Y-95200000D02*
X110800000Y-95200000D01*
X110800000Y-95200000D02*
X110800000Y-98300000D01*
X113020000Y-65940000D02*
X100320000Y-65940000D01*
X100320000Y-65940000D02*
X100320000Y-71020000D01*
X100320000Y-71020000D02*
X110480000Y-71020000D01*
X113020000Y-65940000D02*
X113020000Y-68480000D01*
X111750000Y-71300000D02*
X113300000Y-71300000D01*
X113020000Y-68480000D02*
X110480000Y-68480000D01*
X110480000Y-68480000D02*
X110480000Y-71020000D01*
X113300000Y-71300000D02*
X113300000Y-69750000D01*
X94590000Y-77260000D02*
X94590000Y-78260000D01*
X96290000Y-78260000D02*
X96290000Y-77260000D01*
X101480000Y-94390000D02*
X102480000Y-94390000D01*
X102480000Y-92690000D02*
X101480000Y-92690000D01*
X107060000Y-92690000D02*
X106060000Y-92690000D01*
X106060000Y-94390000D02*
X107060000Y-94390000D01*
X124195000Y-76225000D02*
X124145000Y-76225000D01*
X124195000Y-80375000D02*
X124050000Y-80375000D01*
X119045000Y-80375000D02*
X119190000Y-80375000D01*
X119045000Y-76225000D02*
X119190000Y-76225000D01*
X124195000Y-76225000D02*
X124195000Y-80375000D01*
X119045000Y-76225000D02*
X119045000Y-80375000D01*
X124145000Y-76225000D02*
X124145000Y-74825000D01*
X105490000Y-78180000D02*
X105490000Y-79180000D01*
X107190000Y-79180000D02*
X107190000Y-78180000D01*
X122340000Y-72070000D02*
X121340000Y-72070000D01*
X121340000Y-73770000D02*
X122340000Y-73770000D01*
X119000000Y-104660000D02*
X120000000Y-104660000D01*
X120000000Y-102960000D02*
X119000000Y-102960000D01*
X93917400Y-88450800D02*
X93917400Y-89450800D01*
X95617400Y-89450800D02*
X95617400Y-88450800D01*
X93866600Y-96655000D02*
X93866600Y-97655000D01*
X95566600Y-97655000D02*
X95566600Y-96655000D01*
X91651200Y-105244000D02*
X92651200Y-105244000D01*
X92651200Y-103544000D02*
X91651200Y-103544000D01*
X110520000Y-98940000D02*
X97820000Y-98940000D01*
X97820000Y-98940000D02*
X97820000Y-104020000D01*
X97820000Y-104020000D02*
X107980000Y-104020000D01*
X110520000Y-98940000D02*
X110520000Y-101480000D01*
X109250000Y-104300000D02*
X110800000Y-104300000D01*
X110520000Y-101480000D02*
X107980000Y-101480000D01*
X107980000Y-101480000D02*
X107980000Y-104020000D01*
X110800000Y-104300000D02*
X110800000Y-102750000D01*
X94290000Y-81460000D02*
X94290000Y-83010000D01*
X94290000Y-83010000D02*
X91190000Y-83010000D01*
X91190000Y-83010000D02*
X91190000Y-81460000D01*
X91470000Y-80190000D02*
X91470000Y-70030000D01*
X91470000Y-70030000D02*
X94010000Y-70030000D01*
X94010000Y-70030000D02*
X94010000Y-80190000D01*
X91470000Y-80190000D02*
X94010000Y-80190000D01*
X98335000Y-78150000D02*
X98335000Y-79350000D01*
X96585000Y-79350000D02*
X96585000Y-78150000D01*
X89952800Y-92719600D02*
X89952800Y-93919600D01*
X88202800Y-93919600D02*
X88202800Y-92719600D01*
X86475600Y-93919600D02*
X86475600Y-92719600D01*
X88225600Y-92719600D02*
X88225600Y-93919600D01*
X90378000Y-87432600D02*
G75*
G03X90378000Y-87432600I-100000J0D01*
G01*
X90928000Y-87932600D02*
X90428000Y-87932600D01*
X90928000Y-90832600D02*
X90928000Y-87932600D01*
X90428000Y-90832600D02*
X90928000Y-90832600D01*
X90428000Y-87932600D02*
X90428000Y-90832600D01*
X90344400Y-99598200D02*
G75*
G03X90344400Y-99598200I-100000J0D01*
G01*
X89994400Y-100148200D02*
X89994400Y-99648200D01*
X87094400Y-100148200D02*
X89994400Y-100148200D01*
X87094400Y-99648200D02*
X87094400Y-100148200D01*
X89994400Y-99648200D02*
X87094400Y-99648200D01*
X94479800Y-92519800D02*
X94479800Y-93509800D01*
X90279800Y-92519800D02*
X90279800Y-93509800D01*
X94378200Y-100800200D02*
X94378200Y-101790200D01*
X90178200Y-100800200D02*
X90178200Y-101790200D01*
D12*
X95716200Y-92802000D02*
X95716200Y-91602000D01*
X97476200Y-91602000D02*
X97476200Y-92802000D01*
X90357400Y-95665400D02*
X91557400Y-95665400D01*
X91557400Y-97425400D02*
X90357400Y-97425400D01*
X119930800Y-99175200D02*
X118930800Y-99175200D01*
X118930800Y-100875200D02*
X119930800Y-100875200D01*
X95741600Y-100371200D02*
X95741600Y-99171200D01*
X97501600Y-99171200D02*
X97501600Y-100371200D01*
X120132400Y-102835600D02*
X118932400Y-102835600D01*
X118932400Y-101075600D02*
X120132400Y-101075600D01*
X93600000Y-88250000D02*
X93600000Y-83950000D01*
X93600000Y-83950000D02*
X87900000Y-83950000D01*
X93600000Y-88250000D02*
X87900000Y-88250000D01*
X116580000Y-94840000D02*
X116580000Y-99140000D01*
X116580000Y-99140000D02*
X122280000Y-99140000D01*
X116580000Y-94840000D02*
X122280000Y-94840000D01*
D11*
X114802381Y-97488095D02*
X113802381Y-97488095D01*
X113802381Y-97107142D01*
X113850000Y-97011904D01*
X113897619Y-96964285D01*
X113992857Y-96916666D01*
X114135714Y-96916666D01*
X114230952Y-96964285D01*
X114278571Y-97011904D01*
X114326190Y-97107142D01*
X114326190Y-97488095D01*
X113802381Y-96583333D02*
X113802381Y-95964285D01*
X114183333Y-96297619D01*
X114183333Y-96154761D01*
X114230952Y-96059523D01*
X114278571Y-96011904D01*
X114373810Y-95964285D01*
X114611905Y-95964285D01*
X114707143Y-96011904D01*
X114754762Y-96059523D01*
X114802381Y-96154761D01*
X114802381Y-96440476D01*
X114754762Y-96535714D01*
X114707143Y-96583333D01*
X111011905Y-75302381D02*
X111011905Y-74302381D01*
X111392858Y-74302381D01*
X111488096Y-74350000D01*
X111535715Y-74397619D01*
X111583334Y-74492857D01*
X111583334Y-74635714D01*
X111535715Y-74730952D01*
X111488096Y-74778571D01*
X111392858Y-74826190D01*
X111011905Y-74826190D01*
X112535715Y-75302381D02*
X111964286Y-75302381D01*
X112250000Y-75302381D02*
X112250000Y-74302381D01*
X112154762Y-74445238D01*
X112059524Y-74540476D01*
X111964286Y-74588095D01*
X93697143Y-77926666D02*
X93744762Y-77974285D01*
X93792381Y-78117142D01*
X93792381Y-78212380D01*
X93744762Y-78355238D01*
X93649524Y-78450476D01*
X93554286Y-78498095D01*
X93363810Y-78545714D01*
X93220952Y-78545714D01*
X93030476Y-78498095D01*
X92935238Y-78450476D01*
X92840000Y-78355238D01*
X92792381Y-78212380D01*
X92792381Y-78117142D01*
X92840000Y-77974285D01*
X92887619Y-77926666D01*
X92792381Y-77593333D02*
X92792381Y-76926666D01*
X93792381Y-77355238D01*
X101813334Y-95997143D02*
X101765715Y-96044762D01*
X101622858Y-96092381D01*
X101527620Y-96092381D01*
X101384762Y-96044762D01*
X101289524Y-95949524D01*
X101241905Y-95854286D01*
X101194286Y-95663810D01*
X101194286Y-95520952D01*
X101241905Y-95330476D01*
X101289524Y-95235238D01*
X101384762Y-95140000D01*
X101527620Y-95092381D01*
X101622858Y-95092381D01*
X101765715Y-95140000D01*
X101813334Y-95187619D01*
X102384762Y-95520952D02*
X102289524Y-95473333D01*
X102241905Y-95425714D01*
X102194286Y-95330476D01*
X102194286Y-95282857D01*
X102241905Y-95187619D01*
X102289524Y-95140000D01*
X102384762Y-95092381D01*
X102575239Y-95092381D01*
X102670477Y-95140000D01*
X102718096Y-95187619D01*
X102765715Y-95282857D01*
X102765715Y-95330476D01*
X102718096Y-95425714D01*
X102670477Y-95473333D01*
X102575239Y-95520952D01*
X102384762Y-95520952D01*
X102289524Y-95568571D01*
X102241905Y-95616190D01*
X102194286Y-95711429D01*
X102194286Y-95901905D01*
X102241905Y-95997143D01*
X102289524Y-96044762D01*
X102384762Y-96092381D01*
X102575239Y-96092381D01*
X102670477Y-96044762D01*
X102718096Y-95997143D01*
X102765715Y-95901905D01*
X102765715Y-95711429D01*
X102718096Y-95616190D01*
X102670477Y-95568571D01*
X102575239Y-95520952D01*
X106393334Y-91797143D02*
X106345715Y-91844762D01*
X106202858Y-91892381D01*
X106107620Y-91892381D01*
X105964762Y-91844762D01*
X105869524Y-91749524D01*
X105821905Y-91654286D01*
X105774286Y-91463810D01*
X105774286Y-91320952D01*
X105821905Y-91130476D01*
X105869524Y-91035238D01*
X105964762Y-90940000D01*
X106107620Y-90892381D01*
X106202858Y-90892381D01*
X106345715Y-90940000D01*
X106393334Y-90987619D01*
X107250477Y-91225714D02*
X107250477Y-91892381D01*
X107012381Y-90844762D02*
X106774286Y-91559048D01*
X107393334Y-91559048D01*
X124572381Y-79061905D02*
X125381905Y-79061905D01*
X125477143Y-79014286D01*
X125524762Y-78966667D01*
X125572381Y-78871429D01*
X125572381Y-78680952D01*
X125524762Y-78585714D01*
X125477143Y-78538095D01*
X125381905Y-78490476D01*
X124572381Y-78490476D01*
X124572381Y-78109524D02*
X124572381Y-77490476D01*
X124953333Y-77823810D01*
X124953333Y-77680952D01*
X125000952Y-77585714D01*
X125048571Y-77538095D01*
X125143810Y-77490476D01*
X125381905Y-77490476D01*
X125477143Y-77538095D01*
X125524762Y-77585714D01*
X125572381Y-77680952D01*
X125572381Y-77966667D01*
X125524762Y-78061905D01*
X125477143Y-78109524D01*
X104597143Y-78846666D02*
X104644762Y-78894285D01*
X104692381Y-79037142D01*
X104692381Y-79132380D01*
X104644762Y-79275238D01*
X104549524Y-79370476D01*
X104454286Y-79418095D01*
X104263810Y-79465714D01*
X104120952Y-79465714D01*
X103930476Y-79418095D01*
X103835238Y-79370476D01*
X103740000Y-79275238D01*
X103692381Y-79132380D01*
X103692381Y-79037142D01*
X103740000Y-78894285D01*
X103787619Y-78846666D01*
X103692381Y-77989523D02*
X103692381Y-78180000D01*
X103740000Y-78275238D01*
X103787619Y-78322857D01*
X103930476Y-78418095D01*
X104120952Y-78465714D01*
X104501905Y-78465714D01*
X104597143Y-78418095D01*
X104644762Y-78370476D01*
X104692381Y-78275238D01*
X104692381Y-78084761D01*
X104644762Y-77989523D01*
X104597143Y-77941904D01*
X104501905Y-77894285D01*
X104263810Y-77894285D01*
X104168571Y-77941904D01*
X104120952Y-77989523D01*
X104073333Y-78084761D01*
X104073333Y-78275238D01*
X104120952Y-78370476D01*
X104168571Y-78418095D01*
X104263810Y-78465714D01*
X121673334Y-71177143D02*
X121625715Y-71224762D01*
X121482858Y-71272381D01*
X121387620Y-71272381D01*
X121244762Y-71224762D01*
X121149524Y-71129524D01*
X121101905Y-71034286D01*
X121054286Y-70843810D01*
X121054286Y-70700952D01*
X121101905Y-70510476D01*
X121149524Y-70415238D01*
X121244762Y-70320000D01*
X121387620Y-70272381D01*
X121482858Y-70272381D01*
X121625715Y-70320000D01*
X121673334Y-70367619D01*
X122149524Y-71272381D02*
X122340000Y-71272381D01*
X122435239Y-71224762D01*
X122482858Y-71177143D01*
X122578096Y-71034286D01*
X122625715Y-70843810D01*
X122625715Y-70462857D01*
X122578096Y-70367619D01*
X122530477Y-70320000D01*
X122435239Y-70272381D01*
X122244762Y-70272381D01*
X122149524Y-70320000D01*
X122101905Y-70367619D01*
X122054286Y-70462857D01*
X122054286Y-70700952D01*
X122101905Y-70796190D01*
X122149524Y-70843810D01*
X122244762Y-70891429D01*
X122435239Y-70891429D01*
X122530477Y-70843810D01*
X122578096Y-70796190D01*
X122625715Y-70700952D01*
X118857143Y-106267143D02*
X118809524Y-106314762D01*
X118666667Y-106362381D01*
X118571429Y-106362381D01*
X118428571Y-106314762D01*
X118333333Y-106219524D01*
X118285714Y-106124286D01*
X118238095Y-105933810D01*
X118238095Y-105790952D01*
X118285714Y-105600476D01*
X118333333Y-105505238D01*
X118428571Y-105410000D01*
X118571429Y-105362381D01*
X118666667Y-105362381D01*
X118809524Y-105410000D01*
X118857143Y-105457619D01*
X119809524Y-106362381D02*
X119238095Y-106362381D01*
X119523809Y-106362381D02*
X119523809Y-105362381D01*
X119428571Y-105505238D01*
X119333333Y-105600476D01*
X119238095Y-105648095D01*
X120190476Y-105457619D02*
X120238095Y-105410000D01*
X120333333Y-105362381D01*
X120571429Y-105362381D01*
X120666667Y-105410000D01*
X120714286Y-105457619D01*
X120761905Y-105552857D01*
X120761905Y-105648095D01*
X120714286Y-105790952D01*
X120142857Y-106362381D01*
X120761905Y-106362381D01*
X93024543Y-89593657D02*
X93072162Y-89641276D01*
X93119781Y-89784133D01*
X93119781Y-89879371D01*
X93072162Y-90022229D01*
X92976924Y-90117467D01*
X92881686Y-90165086D01*
X92691210Y-90212705D01*
X92548352Y-90212705D01*
X92357876Y-90165086D01*
X92262638Y-90117467D01*
X92167400Y-90022229D01*
X92119781Y-89879371D01*
X92119781Y-89784133D01*
X92167400Y-89641276D01*
X92215019Y-89593657D01*
X93119781Y-88641276D02*
X93119781Y-89212705D01*
X93119781Y-88926991D02*
X92119781Y-88926991D01*
X92262638Y-89022229D01*
X92357876Y-89117467D01*
X92405495Y-89212705D01*
X92453114Y-87784133D02*
X93119781Y-87784133D01*
X92072162Y-88022229D02*
X92786448Y-88260324D01*
X92786448Y-87641276D01*
X92973743Y-97797857D02*
X93021362Y-97845476D01*
X93068981Y-97988333D01*
X93068981Y-98083571D01*
X93021362Y-98226429D01*
X92926124Y-98321667D01*
X92830886Y-98369286D01*
X92640410Y-98416905D01*
X92497552Y-98416905D01*
X92307076Y-98369286D01*
X92211838Y-98321667D01*
X92116600Y-98226429D01*
X92068981Y-98083571D01*
X92068981Y-97988333D01*
X92116600Y-97845476D01*
X92164219Y-97797857D01*
X93068981Y-96845476D02*
X93068981Y-97416905D01*
X93068981Y-97131191D02*
X92068981Y-97131191D01*
X92211838Y-97226429D01*
X92307076Y-97321667D01*
X92354695Y-97416905D01*
X92068981Y-95940714D02*
X92068981Y-96416905D01*
X92545171Y-96464524D01*
X92497552Y-96416905D01*
X92449933Y-96321667D01*
X92449933Y-96083571D01*
X92497552Y-95988333D01*
X92545171Y-95940714D01*
X92640410Y-95893095D01*
X92878505Y-95893095D01*
X92973743Y-95940714D01*
X93021362Y-95988333D01*
X93068981Y-96083571D01*
X93068981Y-96321667D01*
X93021362Y-96416905D01*
X92973743Y-96464524D01*
X91508343Y-106851143D02*
X91460724Y-106898762D01*
X91317867Y-106946381D01*
X91222629Y-106946381D01*
X91079771Y-106898762D01*
X90984533Y-106803524D01*
X90936914Y-106708286D01*
X90889295Y-106517810D01*
X90889295Y-106374952D01*
X90936914Y-106184476D01*
X90984533Y-106089238D01*
X91079771Y-105994000D01*
X91222629Y-105946381D01*
X91317867Y-105946381D01*
X91460724Y-105994000D01*
X91508343Y-106041619D01*
X92460724Y-106946381D02*
X91889295Y-106946381D01*
X92175009Y-106946381D02*
X92175009Y-105946381D01*
X92079771Y-106089238D01*
X91984533Y-106184476D01*
X91889295Y-106232095D01*
X93317867Y-105946381D02*
X93127390Y-105946381D01*
X93032152Y-105994000D01*
X92984533Y-106041619D01*
X92889295Y-106184476D01*
X92841676Y-106374952D01*
X92841676Y-106755905D01*
X92889295Y-106851143D01*
X92936914Y-106898762D01*
X93032152Y-106946381D01*
X93222629Y-106946381D01*
X93317867Y-106898762D01*
X93365486Y-106851143D01*
X93413105Y-106755905D01*
X93413105Y-106517810D01*
X93365486Y-106422571D01*
X93317867Y-106374952D01*
X93222629Y-106327333D01*
X93032152Y-106327333D01*
X92936914Y-106374952D01*
X92889295Y-106422571D01*
X92841676Y-106517810D01*
X108511905Y-108302381D02*
X108511905Y-107302381D01*
X108892858Y-107302381D01*
X108988096Y-107350000D01*
X109035715Y-107397619D01*
X109083334Y-107492857D01*
X109083334Y-107635714D01*
X109035715Y-107730952D01*
X108988096Y-107778571D01*
X108892858Y-107826190D01*
X108511905Y-107826190D01*
X109464286Y-107397619D02*
X109511905Y-107350000D01*
X109607143Y-107302381D01*
X109845239Y-107302381D01*
X109940477Y-107350000D01*
X109988096Y-107397619D01*
X110035715Y-107492857D01*
X110035715Y-107588095D01*
X109988096Y-107730952D01*
X109416667Y-108302381D01*
X110035715Y-108302381D01*
X92001905Y-87012381D02*
X92001905Y-86012381D01*
X92382858Y-86012381D01*
X92478096Y-86060000D01*
X92525715Y-86107619D01*
X92573334Y-86202857D01*
X92573334Y-86345714D01*
X92525715Y-86440952D01*
X92478096Y-86488571D01*
X92382858Y-86536190D01*
X92001905Y-86536190D01*
X93478096Y-86012381D02*
X93001905Y-86012381D01*
X92954286Y-86488571D01*
X93001905Y-86440952D01*
X93097143Y-86393333D01*
X93335239Y-86393333D01*
X93430477Y-86440952D01*
X93478096Y-86488571D01*
X93525715Y-86583810D01*
X93525715Y-86821905D01*
X93478096Y-86917143D01*
X93430477Y-86964762D01*
X93335239Y-87012381D01*
X93097143Y-87012381D01*
X93001905Y-86964762D01*
X92954286Y-86917143D01*
X95812381Y-79392857D02*
X95336190Y-79726191D01*
X95812381Y-79964286D02*
X94812381Y-79964286D01*
X94812381Y-79583333D01*
X94860000Y-79488095D01*
X94907619Y-79440476D01*
X95002857Y-79392857D01*
X95145714Y-79392857D01*
X95240952Y-79440476D01*
X95288571Y-79488095D01*
X95336190Y-79583333D01*
X95336190Y-79964286D01*
X95812381Y-78440476D02*
X95812381Y-79011905D01*
X95812381Y-78726191D02*
X94812381Y-78726191D01*
X94955238Y-78821429D01*
X95050476Y-78916667D01*
X95098095Y-79011905D01*
X95145714Y-77583333D02*
X95812381Y-77583333D01*
X94764762Y-77821429D02*
X95479048Y-78059524D01*
X95479048Y-77440476D01*
X87430181Y-93962457D02*
X86953990Y-94295791D01*
X87430181Y-94533886D02*
X86430181Y-94533886D01*
X86430181Y-94152933D01*
X86477800Y-94057695D01*
X86525419Y-94010076D01*
X86620657Y-93962457D01*
X86763514Y-93962457D01*
X86858752Y-94010076D01*
X86906371Y-94057695D01*
X86953990Y-94152933D01*
X86953990Y-94533886D01*
X87430181Y-93010076D02*
X87430181Y-93581505D01*
X87430181Y-93295791D02*
X86430181Y-93295791D01*
X86573038Y-93391029D01*
X86668276Y-93486267D01*
X86715895Y-93581505D01*
X86430181Y-92105314D02*
X86430181Y-92581505D01*
X86906371Y-92629124D01*
X86858752Y-92581505D01*
X86811133Y-92486267D01*
X86811133Y-92248171D01*
X86858752Y-92152933D01*
X86906371Y-92105314D01*
X87001610Y-92057695D01*
X87239705Y-92057695D01*
X87334943Y-92105314D01*
X87382562Y-92152933D01*
X87430181Y-92248171D01*
X87430181Y-92486267D01*
X87382562Y-92581505D01*
X87334943Y-92629124D01*
X89902981Y-93962457D02*
X89426790Y-94295791D01*
X89902981Y-94533886D02*
X88902981Y-94533886D01*
X88902981Y-94152933D01*
X88950600Y-94057695D01*
X88998219Y-94010076D01*
X89093457Y-93962457D01*
X89236314Y-93962457D01*
X89331552Y-94010076D01*
X89379171Y-94057695D01*
X89426790Y-94152933D01*
X89426790Y-94533886D01*
X89902981Y-93010076D02*
X89902981Y-93581505D01*
X89902981Y-93295791D02*
X88902981Y-93295791D01*
X89045838Y-93391029D01*
X89141076Y-93486267D01*
X89188695Y-93581505D01*
X88902981Y-92152933D02*
X88902981Y-92343410D01*
X88950600Y-92438648D01*
X88998219Y-92486267D01*
X89141076Y-92581505D01*
X89331552Y-92629124D01*
X89712505Y-92629124D01*
X89807743Y-92581505D01*
X89855362Y-92533886D01*
X89902981Y-92438648D01*
X89902981Y-92248171D01*
X89855362Y-92152933D01*
X89807743Y-92105314D01*
X89712505Y-92057695D01*
X89474410Y-92057695D01*
X89379171Y-92105314D01*
X89331552Y-92152933D01*
X89283933Y-92248171D01*
X89283933Y-92438648D01*
X89331552Y-92533886D01*
X89379171Y-92581505D01*
X89474410Y-92629124D01*
X89916095Y-85934981D02*
X89916095Y-86744505D01*
X89963714Y-86839743D01*
X90011333Y-86887362D01*
X90106571Y-86934981D01*
X90297048Y-86934981D01*
X90392286Y-86887362D01*
X90439905Y-86839743D01*
X90487524Y-86744505D01*
X90487524Y-85934981D01*
X91392286Y-86268314D02*
X91392286Y-86934981D01*
X91154190Y-85887362D02*
X90916095Y-86601648D01*
X91535143Y-86601648D01*
X90546781Y-100610105D02*
X91356305Y-100610105D01*
X91451543Y-100562486D01*
X91499162Y-100514867D01*
X91546781Y-100419629D01*
X91546781Y-100229152D01*
X91499162Y-100133914D01*
X91451543Y-100086295D01*
X91356305Y-100038676D01*
X90546781Y-100038676D01*
X90546781Y-99086295D02*
X90546781Y-99562486D01*
X91022971Y-99610105D01*
X90975352Y-99562486D01*
X90927733Y-99467248D01*
X90927733Y-99229152D01*
X90975352Y-99133914D01*
X91022971Y-99086295D01*
X91118210Y-99038676D01*
X91356305Y-99038676D01*
X91451543Y-99086295D01*
X91499162Y-99133914D01*
X91546781Y-99229152D01*
X91546781Y-99467248D01*
X91499162Y-99562486D01*
X91451543Y-99610105D01*
X95682181Y-93181466D02*
X95682181Y-93657657D01*
X94682181Y-93657657D01*
X95682181Y-92324323D02*
X95682181Y-92895752D01*
X95682181Y-92610038D02*
X94682181Y-92610038D01*
X94825038Y-92705276D01*
X94920276Y-92800514D01*
X94967895Y-92895752D01*
X95580581Y-101461866D02*
X95580581Y-101938057D01*
X94580581Y-101938057D01*
X94675819Y-101176152D02*
X94628200Y-101128533D01*
X94580581Y-101033295D01*
X94580581Y-100795199D01*
X94628200Y-100699961D01*
X94675819Y-100652342D01*
X94771057Y-100604723D01*
X94866295Y-100604723D01*
X95009152Y-100652342D01*
X95580581Y-101223771D01*
X95580581Y-100604723D01*
X98748581Y-92844857D02*
X98272390Y-93178191D01*
X98748581Y-93416286D02*
X97748581Y-93416286D01*
X97748581Y-93035333D01*
X97796200Y-92940095D01*
X97843819Y-92892476D01*
X97939057Y-92844857D01*
X98081914Y-92844857D01*
X98177152Y-92892476D01*
X98224771Y-92940095D01*
X98272390Y-93035333D01*
X98272390Y-93416286D01*
X98748581Y-91892476D02*
X98748581Y-92463905D01*
X98748581Y-92178191D02*
X97748581Y-92178191D01*
X97891438Y-92273429D01*
X97986676Y-92368667D01*
X98034295Y-92463905D01*
X98748581Y-91416286D02*
X98748581Y-91225810D01*
X98700962Y-91130571D01*
X98653343Y-91082952D01*
X98510486Y-90987714D01*
X98320010Y-90940095D01*
X97939057Y-90940095D01*
X97843819Y-90987714D01*
X97796200Y-91035333D01*
X97748581Y-91130571D01*
X97748581Y-91321048D01*
X97796200Y-91416286D01*
X97843819Y-91463905D01*
X97939057Y-91511524D01*
X98177152Y-91511524D01*
X98272390Y-91463905D01*
X98320010Y-91416286D01*
X98367629Y-91321048D01*
X98367629Y-91130571D01*
X98320010Y-91035333D01*
X98272390Y-90987714D01*
X98177152Y-90940095D01*
X90314543Y-98697781D02*
X89981209Y-98221590D01*
X89743114Y-98697781D02*
X89743114Y-97697781D01*
X90124067Y-97697781D01*
X90219305Y-97745400D01*
X90266924Y-97793019D01*
X90314543Y-97888257D01*
X90314543Y-98031114D01*
X90266924Y-98126352D01*
X90219305Y-98173971D01*
X90124067Y-98221590D01*
X89743114Y-98221590D01*
X90695495Y-97793019D02*
X90743114Y-97745400D01*
X90838352Y-97697781D01*
X91076448Y-97697781D01*
X91171686Y-97745400D01*
X91219305Y-97793019D01*
X91266924Y-97888257D01*
X91266924Y-97983495D01*
X91219305Y-98126352D01*
X90647876Y-98697781D01*
X91266924Y-98697781D01*
X91885971Y-97697781D02*
X91981210Y-97697781D01*
X92076448Y-97745400D01*
X92124067Y-97793019D01*
X92171686Y-97888257D01*
X92219305Y-98078733D01*
X92219305Y-98316829D01*
X92171686Y-98507305D01*
X92124067Y-98602543D01*
X92076448Y-98650162D01*
X91981210Y-98697781D01*
X91885971Y-98697781D01*
X91790733Y-98650162D01*
X91743114Y-98602543D01*
X91695495Y-98507305D01*
X91647876Y-98316829D01*
X91647876Y-98078733D01*
X91695495Y-97888257D01*
X91743114Y-97793019D01*
X91790733Y-97745400D01*
X91885971Y-97697781D01*
X119264134Y-98632343D02*
X119216515Y-98679962D01*
X119073658Y-98727581D01*
X118978420Y-98727581D01*
X118835562Y-98679962D01*
X118740324Y-98584724D01*
X118692705Y-98489486D01*
X118645086Y-98299010D01*
X118645086Y-98156152D01*
X118692705Y-97965676D01*
X118740324Y-97870438D01*
X118835562Y-97775200D01*
X118978420Y-97727581D01*
X119073658Y-97727581D01*
X119216515Y-97775200D01*
X119264134Y-97822819D01*
X119645086Y-97822819D02*
X119692705Y-97775200D01*
X119787943Y-97727581D01*
X120026039Y-97727581D01*
X120121277Y-97775200D01*
X120168896Y-97822819D01*
X120216515Y-97918057D01*
X120216515Y-98013295D01*
X120168896Y-98156152D01*
X119597467Y-98727581D01*
X120216515Y-98727581D01*
X98773981Y-100414057D02*
X98297790Y-100747391D01*
X98773981Y-100985486D02*
X97773981Y-100985486D01*
X97773981Y-100604533D01*
X97821600Y-100509295D01*
X97869219Y-100461676D01*
X97964457Y-100414057D01*
X98107314Y-100414057D01*
X98202552Y-100461676D01*
X98250171Y-100509295D01*
X98297790Y-100604533D01*
X98297790Y-100985486D01*
X97869219Y-100033105D02*
X97821600Y-99985486D01*
X97773981Y-99890248D01*
X97773981Y-99652152D01*
X97821600Y-99556914D01*
X97869219Y-99509295D01*
X97964457Y-99461676D01*
X98059695Y-99461676D01*
X98202552Y-99509295D01*
X98773981Y-100080724D01*
X98773981Y-99461676D01*
X98773981Y-98509295D02*
X98773981Y-99080724D01*
X98773981Y-98795010D02*
X97773981Y-98795010D01*
X97916838Y-98890248D01*
X98012076Y-98985486D01*
X98059695Y-99080724D01*
X118889543Y-100707981D02*
X118556209Y-100231790D01*
X118318114Y-100707981D02*
X118318114Y-99707981D01*
X118699067Y-99707981D01*
X118794305Y-99755600D01*
X118841924Y-99803219D01*
X118889543Y-99898457D01*
X118889543Y-100041314D01*
X118841924Y-100136552D01*
X118794305Y-100184171D01*
X118699067Y-100231790D01*
X118318114Y-100231790D01*
X119270495Y-99803219D02*
X119318114Y-99755600D01*
X119413352Y-99707981D01*
X119651448Y-99707981D01*
X119746686Y-99755600D01*
X119794305Y-99803219D01*
X119841924Y-99898457D01*
X119841924Y-99993695D01*
X119794305Y-100136552D01*
X119222876Y-100707981D01*
X119841924Y-100707981D01*
X120175257Y-99707981D02*
X120794305Y-99707981D01*
X120460971Y-100088933D01*
X120603829Y-100088933D01*
X120699067Y-100136552D01*
X120746686Y-100184171D01*
X120794305Y-100279410D01*
X120794305Y-100517505D01*
X120746686Y-100612743D01*
X120699067Y-100660362D01*
X120603829Y-100707981D01*
X120318114Y-100707981D01*
X120222876Y-100660362D01*
X120175257Y-100612743D01*
X89311905Y-89552381D02*
X89311905Y-88552381D01*
X89550000Y-88552381D01*
X89692858Y-88600000D01*
X89788096Y-88695238D01*
X89835715Y-88790476D01*
X89883334Y-88980952D01*
X89883334Y-89123810D01*
X89835715Y-89314286D01*
X89788096Y-89409524D01*
X89692858Y-89504762D01*
X89550000Y-89552381D01*
X89311905Y-89552381D01*
X90264286Y-88647619D02*
X90311905Y-88600000D01*
X90407143Y-88552381D01*
X90645239Y-88552381D01*
X90740477Y-88600000D01*
X90788096Y-88647619D01*
X90835715Y-88742857D01*
X90835715Y-88838095D01*
X90788096Y-88980952D01*
X90216667Y-89552381D01*
X90835715Y-89552381D01*
X119391905Y-94442381D02*
X119391905Y-93442381D01*
X119630000Y-93442381D01*
X119772858Y-93490000D01*
X119868096Y-93585238D01*
X119915715Y-93680476D01*
X119963334Y-93870952D01*
X119963334Y-94013810D01*
X119915715Y-94204286D01*
X119868096Y-94299524D01*
X119772858Y-94394762D01*
X119630000Y-94442381D01*
X119391905Y-94442381D01*
X120820477Y-93775714D02*
X120820477Y-94442381D01*
X120582381Y-93394762D02*
X120344286Y-94109048D01*
X120963334Y-94109048D01*
M02*
