G04 #@! TF.FileFunction,Copper,L2,Bot,Signal*
%FSLAX46Y46*%
G04 Gerber Fmt 4.6, Leading zero omitted, Abs format (unit mm)*
G04 Created by KiCad (PCBNEW 4.0.7) date 05/10/18 10:09:07*
%MOMM*%
%LPD*%
G01*
G04 APERTURE LIST*
%ADD10C,0.200000*%
%ADD11R,1.500000X1.250000*%
%ADD12R,1.727200X2.032000*%
%ADD13O,1.727200X2.032000*%
%ADD14R,1.727200X1.727200*%
%ADD15O,1.727200X1.727200*%
%ADD16R,1.200000X0.600000*%
%ADD17R,0.600000X1.200000*%
%ADD18R,1.250000X1.500000*%
%ADD19R,1.198880X1.198880*%
%ADD20R,2.032000X1.727200*%
%ADD21O,2.032000X1.727200*%
%ADD22R,1.500000X1.300000*%
%ADD23R,1.300000X1.500000*%
%ADD24R,0.600000X2.000000*%
%ADD25C,1.000760*%
%ADD26C,2.000000*%
%ADD27R,2.500000X2.300000*%
%ADD28C,0.600000*%
%ADD29C,0.250000*%
%ADD30C,0.500000*%
%ADD31C,0.254000*%
G04 APERTURE END LIST*
D10*
D11*
X91877200Y-88722200D03*
X89377200Y-88722200D03*
D12*
X109250000Y-96750000D03*
D13*
X106710000Y-96750000D03*
X104170000Y-96750000D03*
X101630000Y-96750000D03*
D14*
X111750000Y-69750000D03*
D15*
X111750000Y-67210000D03*
X109210000Y-69750000D03*
X109210000Y-67210000D03*
X106670000Y-69750000D03*
X106670000Y-67210000D03*
X104130000Y-69750000D03*
X104130000Y-67210000D03*
X101590000Y-69750000D03*
X101590000Y-67210000D03*
D16*
X106590000Y-82700000D03*
X106590000Y-83500000D03*
X106590000Y-84300000D03*
X106590000Y-85100000D03*
X106590000Y-85900000D03*
X106590000Y-86700000D03*
X106590000Y-87500000D03*
X106590000Y-88300000D03*
D17*
X105140000Y-89750000D03*
X104340000Y-89750000D03*
X103540000Y-89750000D03*
X102740000Y-89750000D03*
X101940000Y-89750000D03*
X101140000Y-89750000D03*
X100340000Y-89750000D03*
X99540000Y-89750000D03*
D16*
X98090000Y-88300000D03*
X98090000Y-87500000D03*
X98090000Y-86700000D03*
X98090000Y-85900000D03*
X98090000Y-85100000D03*
X98090000Y-84300000D03*
X98090000Y-83500000D03*
X98090000Y-82700000D03*
D17*
X99540000Y-81250000D03*
X100340000Y-81250000D03*
X101140000Y-81250000D03*
X101940000Y-81250000D03*
X102740000Y-81250000D03*
X103540000Y-81250000D03*
X104340000Y-81250000D03*
X105140000Y-81250000D03*
D11*
X112880000Y-84580000D03*
X110380000Y-84580000D03*
D18*
X95961200Y-85338600D03*
X95961200Y-87838600D03*
D19*
X97510000Y-75499020D03*
X97510000Y-73400980D03*
X112260000Y-104709020D03*
X112260000Y-102610980D03*
D14*
X109250000Y-102750000D03*
D15*
X109250000Y-100210000D03*
X106710000Y-102750000D03*
X106710000Y-100210000D03*
X104170000Y-102750000D03*
X104170000Y-100210000D03*
X101630000Y-102750000D03*
X101630000Y-100210000D03*
X99090000Y-102750000D03*
X99090000Y-100210000D03*
D20*
X92740000Y-81460000D03*
D21*
X92740000Y-78920000D03*
X92740000Y-76380000D03*
X92740000Y-73840000D03*
X92740000Y-71300000D03*
D22*
X98730000Y-66520000D03*
X96030000Y-66520000D03*
D23*
X94030000Y-66730000D03*
X94030000Y-69430000D03*
D22*
X98730000Y-69880000D03*
X96030000Y-69880000D03*
X96030000Y-68200000D03*
X98730000Y-68200000D03*
X113110000Y-86620000D03*
X110410000Y-86620000D03*
X110415000Y-88615000D03*
X113115000Y-88615000D03*
X113130000Y-92640000D03*
X110430000Y-92640000D03*
X110410000Y-90630000D03*
X113110000Y-90630000D03*
D23*
X106850000Y-72400000D03*
X106850000Y-75100000D03*
X104870000Y-75110000D03*
X104870000Y-72410000D03*
X100860000Y-72410000D03*
X100860000Y-75110000D03*
X102900000Y-75110000D03*
X102900000Y-72410000D03*
X123775000Y-82150000D03*
X123775000Y-79450000D03*
X114550000Y-101830000D03*
X114550000Y-104530000D03*
D22*
X118233200Y-100076000D03*
X120933200Y-100076000D03*
D24*
X120410000Y-81620000D03*
X119140000Y-81620000D03*
X117870000Y-81620000D03*
X116600000Y-81620000D03*
X115330000Y-81620000D03*
X114060000Y-81620000D03*
X112790000Y-81620000D03*
X111520000Y-81620000D03*
X110250000Y-81620000D03*
X110250000Y-72220000D03*
X111520000Y-72220000D03*
X112790000Y-72220000D03*
X114060000Y-72220000D03*
X115330000Y-72220000D03*
X116600000Y-72220000D03*
X117870000Y-72220000D03*
X119140000Y-72220000D03*
X120410000Y-72220000D03*
D25*
X123010000Y-99790000D03*
X124280000Y-101060000D03*
X124280000Y-98520000D03*
D26*
X123000000Y-90000000D03*
X118000000Y-92500000D03*
X123000000Y-85000000D03*
X118000000Y-87500000D03*
D11*
X120680800Y-104190800D03*
X118180800Y-104190800D03*
X91496200Y-96799400D03*
X88996200Y-96799400D03*
X91877200Y-91008200D03*
X89377200Y-91008200D03*
D22*
X120933200Y-102158800D03*
X118233200Y-102158800D03*
D27*
X117070000Y-96500000D03*
X121370000Y-96500000D03*
X93793200Y-99263200D03*
X89493200Y-99263200D03*
D28*
X105080000Y-83550000D03*
X123290000Y-77340000D03*
X114440000Y-76710000D03*
X112880000Y-84580000D03*
X89357200Y-103073200D03*
X96012000Y-87909400D03*
X122750000Y-69500000D03*
X124050000Y-83740000D03*
X118211600Y-98856800D03*
X116410000Y-104000000D03*
X98730000Y-89450000D03*
X110190000Y-73990000D03*
X105920000Y-81610000D03*
X96240000Y-71930000D03*
X114650000Y-91900000D03*
X87376000Y-96672400D03*
X105000000Y-84540000D03*
X119710000Y-77380000D03*
X113280000Y-77380000D03*
X121100000Y-79175000D03*
X122310000Y-82800000D03*
X101460000Y-85800000D03*
X99466400Y-91973400D03*
X118250000Y-76000000D03*
X112000000Y-75750000D03*
X100230000Y-88300000D03*
X100280000Y-83670000D03*
X106640000Y-81080000D03*
X93522800Y-88493600D03*
X87884000Y-88442800D03*
X98980000Y-76490000D03*
X108550000Y-71670000D03*
X113250000Y-74000000D03*
X108966000Y-81813400D03*
X98475800Y-92100400D03*
X98069400Y-95351600D03*
X115100000Y-74410000D03*
X115020000Y-75320000D03*
X102850000Y-86950000D03*
X93000000Y-68000000D03*
X96810000Y-71130000D03*
X102050000Y-87820000D03*
X104240000Y-76470000D03*
X104320000Y-88660000D03*
X103630000Y-88150000D03*
X103670000Y-77150000D03*
X101810000Y-82870000D03*
X101700000Y-91360000D03*
X114640000Y-83880000D03*
X109016800Y-83185000D03*
X100761800Y-91262200D03*
X108850000Y-84050000D03*
X107860000Y-91670000D03*
X106620000Y-91670000D03*
X108330000Y-84690000D03*
X93446600Y-95275400D03*
X93472000Y-90728800D03*
X93624400Y-105486200D03*
X114046000Y-98272600D03*
X109524800Y-94030800D03*
X116890800Y-100203000D03*
X110642400Y-94005400D03*
X114528600Y-97612200D03*
D29*
X114440000Y-76710000D02*
X122660000Y-76710000D01*
X122660000Y-76710000D02*
X123290000Y-77340000D01*
X98090000Y-84300000D02*
X104180000Y-84300000D01*
X104930000Y-83550000D02*
X105080000Y-83550000D01*
X104180000Y-84300000D02*
X104930000Y-83550000D01*
X116410000Y-104000000D02*
X116410000Y-101754200D01*
X93472000Y-103073200D02*
X89357200Y-103073200D01*
X95173800Y-104775000D02*
X93472000Y-103073200D01*
X110083600Y-104775000D02*
X95173800Y-104775000D01*
X110693200Y-104165400D02*
X110083600Y-104775000D01*
X110693200Y-101777800D02*
X110693200Y-104165400D01*
X111125000Y-101346000D02*
X110693200Y-101777800D01*
X112420400Y-101346000D02*
X111125000Y-101346000D01*
X113233200Y-100533200D02*
X112420400Y-101346000D01*
X115189000Y-100533200D02*
X113233200Y-100533200D01*
X116410000Y-101754200D02*
X115189000Y-100533200D01*
X118000000Y-87500000D02*
X118000000Y-87282800D01*
X118000000Y-87282800D02*
X121818400Y-83464400D01*
X123774400Y-83464400D02*
X124050000Y-83740000D01*
X121818400Y-83464400D02*
X123774400Y-83464400D01*
X99938200Y-90968200D02*
X99938200Y-91353000D01*
X101630000Y-93044800D02*
X101630000Y-96750000D01*
X99938200Y-91353000D02*
X101630000Y-93044800D01*
X89493200Y-99263200D02*
X89493200Y-97296400D01*
X89493200Y-97296400D02*
X88996200Y-96799400D01*
X88996200Y-96799400D02*
X88996200Y-91389200D01*
X88996200Y-91389200D02*
X89377200Y-91008200D01*
X87376000Y-96672400D02*
X87376000Y-101092000D01*
X87376000Y-101092000D02*
X89357200Y-103073200D01*
X88996200Y-96799400D02*
X87503000Y-96799400D01*
X87503000Y-96799400D02*
X87376000Y-96672400D01*
X89377200Y-91008200D02*
X89377200Y-90505600D01*
X89377200Y-90505600D02*
X89992200Y-89890600D01*
X89992200Y-89890600D02*
X93909200Y-89890600D01*
X93909200Y-89890600D02*
X95961200Y-87838600D01*
X96012000Y-87909400D02*
X95961200Y-87858600D01*
X95961200Y-87858600D02*
X95961200Y-87838600D01*
X114940000Y-104140000D02*
X114550000Y-104530000D01*
X114550000Y-104530000D02*
X114550000Y-104560000D01*
X118000000Y-87500000D02*
X118000000Y-89830000D01*
X118000000Y-89830000D02*
X116320000Y-91510000D01*
X116320000Y-91510000D02*
X116320000Y-93430000D01*
X116320000Y-93430000D02*
X117840000Y-94950000D01*
X117840000Y-94950000D02*
X118580000Y-94950000D01*
X118580000Y-94950000D02*
X119250000Y-95620000D01*
X119250000Y-95620000D02*
X119250000Y-97910000D01*
X119250000Y-97910000D02*
X117981600Y-98856800D01*
X117981600Y-98856800D02*
X118211600Y-98856800D01*
X113110000Y-90630000D02*
X114870000Y-90630000D01*
X114870000Y-90630000D02*
X118000000Y-87500000D01*
X112880000Y-84580000D02*
X115080000Y-84580000D01*
X115080000Y-84580000D02*
X118000000Y-87500000D01*
X98730000Y-68200000D02*
X98030000Y-68200000D01*
X98030000Y-68200000D02*
X97510000Y-68720000D01*
X97510000Y-68720000D02*
X97510000Y-73400980D01*
X114550000Y-104530000D02*
X115880000Y-104530000D01*
X115880000Y-104530000D02*
X116410000Y-104000000D01*
X106670000Y-67210000D02*
X106670000Y-69750000D01*
X96240000Y-71930000D02*
X95670000Y-71930000D01*
X95670000Y-71930000D02*
X93750000Y-70010000D01*
X99540000Y-89750000D02*
X99540000Y-90570000D01*
X99540000Y-90570000D02*
X99938200Y-90968200D01*
X99938200Y-90968200D02*
X99540000Y-90570000D01*
X102370000Y-73840000D02*
X97949020Y-73840000D01*
X97949020Y-73840000D02*
X97510000Y-73400980D01*
X107670000Y-73880000D02*
X110080000Y-73880000D01*
X110080000Y-73880000D02*
X110190000Y-73990000D01*
X110250000Y-72220000D02*
X110250000Y-73930000D01*
X110250000Y-73930000D02*
X110190000Y-73990000D01*
X97510000Y-73400980D02*
X97510000Y-73200000D01*
X97510000Y-73200000D02*
X96240000Y-71930000D01*
X102900000Y-72410000D02*
X102900000Y-73310000D01*
X102900000Y-73310000D02*
X102370000Y-73840000D01*
X99540000Y-89750000D02*
X99030000Y-89750000D01*
X99030000Y-89750000D02*
X98730000Y-89450000D01*
X113110000Y-90630000D02*
X113430000Y-90630000D01*
X113430000Y-90630000D02*
X114650000Y-91850000D01*
X105560000Y-81250000D02*
X105140000Y-81250000D01*
X105920000Y-81610000D02*
X105560000Y-81250000D01*
X113115000Y-88615000D02*
X113725000Y-88615000D01*
X113725000Y-88615000D02*
X114470000Y-87870000D01*
X113670000Y-84580000D02*
X112880000Y-84580000D01*
X114470000Y-85380000D02*
X113670000Y-84580000D01*
X114470000Y-87870000D02*
X114470000Y-85380000D01*
X104870000Y-72410000D02*
X104870000Y-73560000D01*
X108170000Y-73880000D02*
X108200000Y-73910000D01*
X105190000Y-73880000D02*
X107670000Y-73880000D01*
X107670000Y-73880000D02*
X108170000Y-73880000D01*
X104870000Y-73560000D02*
X105190000Y-73880000D01*
X102900000Y-72410000D02*
X104870000Y-72410000D01*
X113115000Y-88615000D02*
X113115000Y-90625000D01*
X113115000Y-90625000D02*
X113110000Y-90630000D01*
X106880000Y-69750000D02*
X106880000Y-69260000D01*
X106880000Y-67210000D02*
X106880000Y-66750000D01*
X114650000Y-91850000D02*
X114650000Y-91900000D01*
X95920000Y-88300000D02*
X95830000Y-88210000D01*
X113280000Y-77380000D02*
X119710000Y-77380000D01*
X98090000Y-85100000D02*
X104440000Y-85100000D01*
X104440000Y-85100000D02*
X105000000Y-84540000D01*
X123775000Y-79450000D02*
X121375000Y-79450000D01*
X121375000Y-79450000D02*
X121100000Y-79175000D01*
X118000000Y-92500000D02*
X118000000Y-90762600D01*
X124968000Y-83566000D02*
X124970000Y-83566000D01*
X124968000Y-85242400D02*
X124968000Y-83566000D01*
X123647200Y-86563200D02*
X124968000Y-85242400D01*
X121107200Y-86563200D02*
X123647200Y-86563200D01*
X118846600Y-88823800D02*
X121107200Y-86563200D01*
X118846600Y-89916000D02*
X118846600Y-88823800D01*
X118000000Y-90762600D02*
X118846600Y-89916000D01*
X124970000Y-83345000D02*
X123775000Y-82150000D01*
X124970000Y-83566000D02*
X124970000Y-83345000D01*
X123775000Y-82150000D02*
X122960000Y-82150000D01*
X122960000Y-82150000D02*
X122310000Y-82800000D01*
X123775000Y-82150000D02*
X123300000Y-82150000D01*
X106590000Y-85100000D02*
X107710000Y-85100000D01*
X109580000Y-85380000D02*
X110380000Y-84580000D01*
X107990000Y-85380000D02*
X109580000Y-85380000D01*
X107710000Y-85100000D02*
X107990000Y-85380000D01*
X105500000Y-85100000D02*
X106590000Y-85100000D01*
X104940000Y-85660000D02*
X105500000Y-85100000D01*
X101580000Y-85680000D02*
X104940000Y-85660000D01*
X101460000Y-85800000D02*
X101580000Y-85680000D01*
X109860000Y-85100000D02*
X110380000Y-84580000D01*
X99466400Y-91973400D02*
X99466400Y-91276400D01*
X99466400Y-91276400D02*
X99390000Y-91200000D01*
X95961200Y-85338600D02*
X95961200Y-85801200D01*
X95961200Y-85801200D02*
X97028000Y-86868000D01*
X97028000Y-86868000D02*
X97028000Y-88315800D01*
X97028000Y-88315800D02*
X97043800Y-88300000D01*
X97043800Y-88300000D02*
X98090000Y-88300000D01*
X112250000Y-76000000D02*
X118250000Y-76000000D01*
X112000000Y-75750000D02*
X112250000Y-76000000D01*
X98090000Y-88300000D02*
X98090000Y-89900000D01*
X98090000Y-89900000D02*
X99390000Y-91200000D01*
X106590000Y-82700000D02*
X105020000Y-82700000D01*
X100260000Y-88290000D02*
X100260000Y-88300000D01*
X100240000Y-88290000D02*
X100260000Y-88290000D01*
X100230000Y-88300000D02*
X100240000Y-88290000D01*
X104050000Y-83670000D02*
X100280000Y-83670000D01*
X105020000Y-82700000D02*
X104050000Y-83670000D01*
X94260000Y-80440000D02*
X92740000Y-78920000D01*
X94260000Y-83410000D02*
X94260000Y-80440000D01*
X95830000Y-84980000D02*
X94260000Y-83410000D01*
X106590000Y-85900000D02*
X105550000Y-85900000D01*
X105550000Y-85900000D02*
X105270000Y-86180000D01*
X105270000Y-86180000D02*
X102570000Y-86180000D01*
X102570000Y-86180000D02*
X100450000Y-88300000D01*
X100450000Y-88300000D02*
X100260000Y-88300000D01*
X100260000Y-88300000D02*
X98090000Y-88300000D01*
X106640000Y-81080000D02*
X106560000Y-82790000D01*
X93294200Y-88722200D02*
X91877200Y-88722200D01*
X93522800Y-88493600D02*
X93294200Y-88722200D01*
X89377200Y-88722200D02*
X88163400Y-88722200D01*
X88163400Y-88722200D02*
X87884000Y-88442800D01*
X97510000Y-75499020D02*
X97989020Y-75499020D01*
X97989020Y-75499020D02*
X98980000Y-76490000D01*
X112260000Y-102610980D02*
X113769020Y-102610980D01*
X113769020Y-102610980D02*
X114550000Y-101830000D01*
X111750000Y-69750000D02*
X113420000Y-69750000D01*
X114060000Y-70390000D02*
X114060000Y-72220000D01*
X113420000Y-69750000D02*
X114060000Y-70390000D01*
X111960000Y-69750000D02*
X111960000Y-69480000D01*
X111960000Y-69750000D02*
X111960000Y-69460000D01*
X115330000Y-72220000D02*
X115330000Y-70790000D01*
X115330000Y-70790000D02*
X111750000Y-67210000D01*
X111750000Y-67210000D02*
X111750000Y-67249200D01*
X115330000Y-72220000D02*
X115330000Y-71430000D01*
X100860000Y-72410000D02*
X100860000Y-71900000D01*
X100860000Y-71900000D02*
X101680000Y-71080000D01*
X107880000Y-71080000D02*
X109210000Y-69750000D01*
X101680000Y-71080000D02*
X107880000Y-71080000D01*
X100860000Y-72410000D02*
X100860000Y-71840000D01*
X100860000Y-72410000D02*
X100860000Y-71720000D01*
X108550000Y-71670000D02*
X107820000Y-72400000D01*
X107820000Y-72400000D02*
X106850000Y-72400000D01*
X109420000Y-66460000D02*
X109340000Y-66460000D01*
X106850000Y-72400000D02*
X106850000Y-71750000D01*
X119140000Y-72220000D02*
X119140000Y-71362600D01*
X119140000Y-71362600D02*
X118313200Y-70535800D01*
X113436400Y-66243200D02*
X113133200Y-65940000D01*
X113436400Y-67919600D02*
X113436400Y-66243200D01*
X116052600Y-70535800D02*
X113436400Y-67919600D01*
X118313200Y-70535800D02*
X116052600Y-70535800D01*
X104130000Y-69750000D02*
X104130000Y-69570000D01*
X104130000Y-69570000D02*
X105390000Y-68310000D01*
X105390000Y-68310000D02*
X105390000Y-66220000D01*
X105390000Y-66220000D02*
X105670000Y-65940000D01*
X105670000Y-65940000D02*
X113133200Y-65940000D01*
X104090000Y-70000000D02*
X104340000Y-69750000D01*
X104320000Y-69770000D02*
X104340000Y-69750000D01*
X104870000Y-65450000D02*
X113303600Y-65450000D01*
X118980798Y-70085798D02*
X120410000Y-71515000D01*
X116238996Y-70085798D02*
X118980798Y-70085798D01*
X113893600Y-67740402D02*
X116238996Y-70085798D01*
X113893600Y-66040000D02*
X113893600Y-67740402D01*
X113303600Y-65450000D02*
X113893600Y-66040000D01*
X120410000Y-71515000D02*
X120410000Y-72220000D01*
X120410000Y-72220000D02*
X120410000Y-71530000D01*
X104130000Y-66190000D02*
X104130000Y-67210000D01*
X104870000Y-65450000D02*
X104130000Y-66190000D01*
X98600000Y-69500000D02*
X101340000Y-69500000D01*
X101340000Y-69500000D02*
X101590000Y-69750000D01*
X98730000Y-66520000D02*
X100900000Y-66520000D01*
X100900000Y-66520000D02*
X101590000Y-67210000D01*
X112790000Y-72220000D02*
X112790000Y-73740000D01*
X112790000Y-73740000D02*
X113250000Y-74000000D01*
D30*
X106710000Y-102750000D02*
X106647600Y-102750000D01*
X106647600Y-102750000D02*
X105257600Y-104140000D01*
X105257600Y-104140000D02*
X98348800Y-104140000D01*
X109250000Y-100210000D02*
X106710000Y-100210000D01*
X98069400Y-95351600D02*
X98069400Y-92506800D01*
X98069400Y-92506800D02*
X98475800Y-92100400D01*
X110250000Y-81620000D02*
X109159400Y-81620000D01*
D29*
X109159400Y-81620000D02*
X108966000Y-81813400D01*
X93793200Y-99263200D02*
X93793200Y-99584400D01*
D30*
X93793200Y-99584400D02*
X98348800Y-104140000D01*
X106710000Y-102750000D02*
X106710000Y-100210000D01*
D29*
X93793200Y-99263200D02*
X94157800Y-99263200D01*
D30*
X94157800Y-99263200D02*
X98069400Y-95351600D01*
D29*
X117250000Y-95400000D02*
X116400000Y-95400000D01*
D30*
X117071160Y-96500000D02*
X113461800Y-96500000D01*
X113461800Y-96500000D02*
X112770000Y-96500000D01*
X112000000Y-97270000D02*
X112000000Y-100460000D01*
X109500000Y-100460000D02*
X112000000Y-100460000D01*
X112770000Y-96500000D02*
X112000000Y-97270000D01*
D29*
X106710000Y-102750000D02*
X106710000Y-103200000D01*
X109500000Y-100460000D02*
X109250000Y-100210000D01*
X116600000Y-72220000D02*
X116600000Y-73750000D01*
X115940000Y-74410000D02*
X115100000Y-74410000D01*
X116600000Y-73750000D02*
X115940000Y-74410000D01*
X117870000Y-72220000D02*
X117870000Y-73700000D01*
X116250000Y-75320000D02*
X115020000Y-75320000D01*
X117870000Y-73700000D02*
X116250000Y-75320000D01*
X113130000Y-92640000D02*
X113130000Y-93600000D01*
X102880000Y-101500000D02*
X101630000Y-102750000D01*
X102880000Y-99490000D02*
X102880000Y-101500000D01*
X103380000Y-98990000D02*
X102880000Y-99490000D01*
X110340000Y-98990000D02*
X103380000Y-98990000D01*
X111260000Y-98070000D02*
X110340000Y-98990000D01*
X111260000Y-95470000D02*
X111260000Y-98070000D01*
X113130000Y-93600000D02*
X111260000Y-95470000D01*
X113130000Y-92640000D02*
X113130000Y-93180000D01*
X113110000Y-86620000D02*
X112109600Y-86620000D01*
X111836200Y-86893400D02*
X111836200Y-93803800D01*
X112109600Y-86620000D02*
X111836200Y-86893400D01*
X110640000Y-95000000D02*
X110640000Y-97820000D01*
X110640000Y-97820000D02*
X109930000Y-98530000D01*
X111836200Y-93803800D02*
X110640000Y-95000000D01*
X101630000Y-100210000D02*
X101630000Y-99730000D01*
X101630000Y-99730000D02*
X102830000Y-98530000D01*
X102830000Y-98530000D02*
X109930000Y-98530000D01*
X113110000Y-86620000D02*
X112400000Y-86620000D01*
X99090000Y-100210000D02*
X99090000Y-102750000D01*
X92740000Y-73840000D02*
X92864600Y-73840000D01*
X92864600Y-73840000D02*
X94710002Y-75685402D01*
X95133200Y-83500000D02*
X98090000Y-83500000D01*
X94710002Y-83076802D02*
X95133200Y-83500000D01*
X94710002Y-75685402D02*
X94710002Y-83076802D01*
X92740000Y-71300000D02*
X92740000Y-71454800D01*
X92740000Y-71454800D02*
X95160004Y-73874804D01*
X95450800Y-82700000D02*
X98090000Y-82700000D01*
X95160004Y-82409204D02*
X95450800Y-82700000D01*
X95160004Y-73874804D02*
X95160004Y-82409204D01*
X92740000Y-71300000D02*
X92790000Y-71300000D01*
X94030000Y-66730000D02*
X94030000Y-66970000D01*
X94030000Y-66970000D02*
X93000000Y-68000000D01*
X94030000Y-66730000D02*
X95820000Y-66730000D01*
X95820000Y-66730000D02*
X96030000Y-66520000D01*
X106590000Y-86700000D02*
X103080000Y-86700000D01*
X102850000Y-86930000D02*
X102850000Y-86950000D01*
X103080000Y-86700000D02*
X102850000Y-86930000D01*
X96030000Y-68200000D02*
X96030000Y-69880000D01*
X96810000Y-71130000D02*
X96810000Y-70660000D01*
X96810000Y-70660000D02*
X96030000Y-69880000D01*
X106590000Y-87500000D02*
X103210000Y-87500000D01*
X102890000Y-87820000D02*
X102050000Y-87820000D01*
X103210000Y-87500000D02*
X102890000Y-87820000D01*
X110410000Y-86620000D02*
X110410000Y-88610000D01*
X110410000Y-88610000D02*
X110415000Y-88615000D01*
X106590000Y-88300000D02*
X110100000Y-88300000D01*
X110100000Y-88300000D02*
X110415000Y-88615000D01*
X110100000Y-88300000D02*
X110415000Y-88615000D01*
X110465000Y-88665000D02*
X110415000Y-88615000D01*
X105140000Y-89750000D02*
X109030000Y-89750000D01*
X109030000Y-89750000D02*
X109910000Y-90630000D01*
X109910000Y-90630000D02*
X110410000Y-90630000D01*
X110410000Y-90630000D02*
X110410000Y-92620000D01*
X110410000Y-92620000D02*
X110430000Y-92640000D01*
X104870000Y-75110000D02*
X106840000Y-75110000D01*
X106840000Y-75110000D02*
X106850000Y-75100000D01*
X104870000Y-75110000D02*
X104870000Y-75840000D01*
X104870000Y-75840000D02*
X104240000Y-76470000D01*
X104320000Y-88660000D02*
X104340000Y-88680000D01*
X104340000Y-88680000D02*
X104340000Y-89750000D01*
X100860000Y-75110000D02*
X102900000Y-75110000D01*
X102900000Y-75110000D02*
X102900000Y-76380000D01*
X103540000Y-88240000D02*
X103540000Y-89750000D01*
X103630000Y-88150000D02*
X103540000Y-88240000D01*
X102900000Y-76380000D02*
X103670000Y-77150000D01*
X104340000Y-82440000D02*
X104340000Y-81250000D01*
X103830000Y-82950000D02*
X104340000Y-82440000D01*
X101890000Y-82950000D02*
X103830000Y-82950000D01*
X101810000Y-82870000D02*
X101890000Y-82950000D01*
X120410000Y-81620000D02*
X120410000Y-83330000D01*
X120090000Y-83650000D02*
X114870000Y-83650000D01*
X120410000Y-83330000D02*
X120090000Y-83650000D01*
X101140000Y-89750000D02*
X101140000Y-90670000D01*
X101700000Y-91230000D02*
X101700000Y-91360000D01*
X101140000Y-90670000D02*
X101700000Y-91230000D01*
X114640000Y-83880000D02*
X114870000Y-83650000D01*
X119140000Y-81620000D02*
X119140000Y-82950000D01*
X118960000Y-83130000D02*
X118200000Y-83130000D01*
X119140000Y-82950000D02*
X118960000Y-83130000D01*
X100340000Y-89750000D02*
X100340000Y-90760000D01*
X100340000Y-90760000D02*
X100761800Y-91262200D01*
X118200000Y-83130000D02*
X109236800Y-83145000D01*
X109236800Y-83145000D02*
X109016800Y-83125000D01*
X109016800Y-83125000D02*
X109016800Y-83185000D01*
X117870000Y-81620000D02*
X117870000Y-79690000D01*
X116220000Y-78040000D02*
X102170000Y-78040000D01*
X117870000Y-79690000D02*
X116220000Y-78040000D01*
X102170000Y-78040000D02*
X100340000Y-79870000D01*
X100340000Y-79870000D02*
X100340000Y-81250000D01*
X116600000Y-81620000D02*
X116600000Y-79460000D01*
X113660000Y-78490002D02*
X113660000Y-78510000D01*
X115630002Y-78490002D02*
X113660000Y-78490002D01*
X116600000Y-79460000D02*
X115630002Y-78490002D01*
X113660000Y-78510000D02*
X102620000Y-78510000D01*
X102620000Y-78510000D02*
X101140000Y-79990000D01*
X101140000Y-79990000D02*
X101140000Y-81250000D01*
X115330000Y-81620000D02*
X115330000Y-79420000D01*
X114900000Y-78990000D02*
X103100000Y-78990000D01*
X115330000Y-79420000D02*
X114900000Y-78990000D01*
X101940000Y-80150000D02*
X101940000Y-81250000D01*
X103100000Y-78990000D02*
X101940000Y-80150000D01*
X114060000Y-81620000D02*
X114060000Y-79800000D01*
X112290000Y-79440002D02*
X112290000Y-79460000D01*
X113700002Y-79440002D02*
X112290000Y-79440002D01*
X114060000Y-79800000D02*
X113700002Y-79440002D01*
X112290000Y-79460000D02*
X103430000Y-79460000D01*
X103430000Y-79460000D02*
X102740000Y-80150000D01*
X102740000Y-80150000D02*
X102740000Y-81250000D01*
X112790000Y-81620000D02*
X112790000Y-80070004D01*
X111290000Y-79910002D02*
X111290000Y-79940000D01*
X112629998Y-79910002D02*
X111290000Y-79910002D01*
X112790000Y-80070004D02*
X112629998Y-79910002D01*
X103540000Y-80190000D02*
X103540000Y-81250000D01*
X103790000Y-79940000D02*
X103540000Y-80190000D01*
X111290000Y-79940000D02*
X103790000Y-79940000D01*
X121368840Y-96500000D02*
X121910000Y-96500000D01*
D30*
X121910000Y-96500000D02*
X123000000Y-95410000D01*
X123000000Y-95410000D02*
X123000000Y-90000000D01*
D29*
X106590000Y-83500000D02*
X107620000Y-83500000D01*
X108170000Y-84050000D02*
X108850000Y-84050000D01*
X107620000Y-83500000D02*
X108170000Y-84050000D01*
X106710000Y-92820000D02*
X106710000Y-96750000D01*
X107860000Y-91670000D02*
X106710000Y-92820000D01*
X106620000Y-91670000D02*
X106620000Y-91906400D01*
X105943400Y-94976600D02*
X104170000Y-96750000D01*
X105943400Y-92583000D02*
X105943400Y-94976600D01*
X106620000Y-91906400D02*
X105943400Y-92583000D01*
X106590000Y-84300000D02*
X107570000Y-84300000D01*
X108350000Y-84690000D02*
X108330000Y-84690000D01*
X108370000Y-84670000D02*
X108350000Y-84690000D01*
X107940000Y-84670000D02*
X108370000Y-84670000D01*
X107570000Y-84300000D02*
X107940000Y-84670000D01*
X91496200Y-96799400D02*
X92456000Y-96799400D01*
X92456000Y-96799400D02*
X93446600Y-95275400D01*
X91877200Y-91008200D02*
X93192600Y-91008200D01*
X93192600Y-91008200D02*
X93472000Y-90728800D01*
X111074200Y-105511600D02*
X93649800Y-105511600D01*
X93649800Y-105511600D02*
X93624400Y-105486200D01*
X111074200Y-105511600D02*
X111457420Y-105511600D01*
X111457420Y-105511600D02*
X112260000Y-104709020D01*
X112260000Y-104859200D02*
X112260000Y-104709020D01*
X118233200Y-100076000D02*
X118465600Y-100076000D01*
X118465600Y-100076000D02*
X119684800Y-98856800D01*
X122076800Y-98856800D02*
X123010000Y-99790000D01*
X119684800Y-98856800D02*
X122076800Y-98856800D01*
X118233200Y-102158800D02*
X118233200Y-100076000D01*
X116535200Y-100863400D02*
X116992400Y-101320600D01*
X116992400Y-102844600D02*
X117322600Y-103174800D01*
X116992400Y-101320600D02*
X116992400Y-102844600D01*
X103759000Y-90870000D02*
X103087400Y-90870000D01*
X103087400Y-90870000D02*
X102997000Y-90779600D01*
X102740000Y-89750000D02*
X102740000Y-90522600D01*
X102740000Y-90522600D02*
X102997000Y-90779600D01*
X102997000Y-90779600D02*
X103087400Y-90870000D01*
X114046000Y-98272600D02*
X114046000Y-98374200D01*
X114046000Y-98374200D02*
X116535200Y-100863400D01*
X103759000Y-90870000D02*
X105802200Y-90870000D01*
X108356400Y-90576400D02*
X108970002Y-91190002D01*
X106095800Y-90576400D02*
X108356400Y-90576400D01*
X105802200Y-90870000D02*
X106095800Y-90576400D01*
X120680800Y-104190800D02*
X120294400Y-104190800D01*
X120294400Y-104190800D02*
X119278400Y-103174800D01*
X119278400Y-103174800D02*
X117322600Y-103174800D01*
X109524800Y-94030800D02*
X109552800Y-94002800D01*
X109552800Y-94002800D02*
X108980000Y-93430000D01*
X120933200Y-102158800D02*
X120933200Y-103836800D01*
X120933200Y-103836800D02*
X120630000Y-104140000D01*
X120630000Y-104120000D02*
X120610000Y-104140000D01*
X108970002Y-91190002D02*
X108970002Y-91920000D01*
X108980000Y-93430000D02*
X108980000Y-91920000D01*
X108970002Y-91920000D02*
X108980000Y-91920000D01*
X114528600Y-97612200D02*
X114554000Y-97612200D01*
X116890800Y-99949000D02*
X116890800Y-100203000D01*
X114554000Y-97612200D02*
X116890800Y-99949000D01*
X110642400Y-94005400D02*
X110617000Y-94005400D01*
X105791000Y-91541600D02*
X102819200Y-91541600D01*
X102819200Y-91541600D02*
X101940000Y-90662400D01*
X101940000Y-90662400D02*
X101940000Y-89750000D01*
X108508800Y-94335600D02*
X108508800Y-91414600D01*
X108839000Y-94665800D02*
X108508800Y-94335600D01*
X105791000Y-91541600D02*
X106299000Y-91033600D01*
X106299000Y-91033600D02*
X108127800Y-91033600D01*
X108127800Y-91033600D02*
X108508800Y-91414600D01*
X110617000Y-94005400D02*
X109728000Y-94767400D01*
X109728000Y-94767400D02*
X108940600Y-94767400D01*
X108940600Y-94767400D02*
X108889800Y-94716600D01*
X108889800Y-94716600D02*
X108839000Y-94716600D01*
X108839000Y-94716600D02*
X108839000Y-94665800D01*
D31*
G36*
X116232400Y-101635402D02*
X116232400Y-102844600D01*
X116290252Y-103135439D01*
X116454999Y-103382001D01*
X116785199Y-103712201D01*
X116795800Y-103719284D01*
X116795800Y-103905050D01*
X116954550Y-104063800D01*
X118053800Y-104063800D01*
X118053800Y-104043800D01*
X118307800Y-104043800D01*
X118307800Y-104063800D01*
X118327800Y-104063800D01*
X118327800Y-104317800D01*
X118307800Y-104317800D01*
X118307800Y-105292050D01*
X118466550Y-105450800D01*
X119057109Y-105450800D01*
X119290498Y-105354127D01*
X119431736Y-105212890D01*
X119466710Y-105267241D01*
X119678910Y-105412231D01*
X119930800Y-105463240D01*
X120532668Y-105463240D01*
X120455908Y-105540000D01*
X115779623Y-105540000D01*
X115835000Y-105406309D01*
X115835000Y-104815750D01*
X115676250Y-104657000D01*
X114677000Y-104657000D01*
X114677000Y-104677000D01*
X114423000Y-104677000D01*
X114423000Y-104657000D01*
X114403000Y-104657000D01*
X114403000Y-104476550D01*
X116795800Y-104476550D01*
X116795800Y-104942110D01*
X116892473Y-105175499D01*
X117071102Y-105354127D01*
X117304491Y-105450800D01*
X117895050Y-105450800D01*
X118053800Y-105292050D01*
X118053800Y-104317800D01*
X116954550Y-104317800D01*
X116795800Y-104476550D01*
X114403000Y-104476550D01*
X114403000Y-104403000D01*
X114423000Y-104403000D01*
X114423000Y-104383000D01*
X114677000Y-104383000D01*
X114677000Y-104403000D01*
X115676250Y-104403000D01*
X115835000Y-104244250D01*
X115835000Y-103653691D01*
X115738327Y-103420302D01*
X115559699Y-103241673D01*
X115423713Y-103185346D01*
X115435317Y-103183162D01*
X115651441Y-103044090D01*
X115796431Y-102831890D01*
X115847440Y-102580000D01*
X115847440Y-101250442D01*
X116232400Y-101635402D01*
X116232400Y-101635402D01*
G37*
X116232400Y-101635402D02*
X116232400Y-102844600D01*
X116290252Y-103135439D01*
X116454999Y-103382001D01*
X116785199Y-103712201D01*
X116795800Y-103719284D01*
X116795800Y-103905050D01*
X116954550Y-104063800D01*
X118053800Y-104063800D01*
X118053800Y-104043800D01*
X118307800Y-104043800D01*
X118307800Y-104063800D01*
X118327800Y-104063800D01*
X118327800Y-104317800D01*
X118307800Y-104317800D01*
X118307800Y-105292050D01*
X118466550Y-105450800D01*
X119057109Y-105450800D01*
X119290498Y-105354127D01*
X119431736Y-105212890D01*
X119466710Y-105267241D01*
X119678910Y-105412231D01*
X119930800Y-105463240D01*
X120532668Y-105463240D01*
X120455908Y-105540000D01*
X115779623Y-105540000D01*
X115835000Y-105406309D01*
X115835000Y-104815750D01*
X115676250Y-104657000D01*
X114677000Y-104657000D01*
X114677000Y-104677000D01*
X114423000Y-104677000D01*
X114423000Y-104657000D01*
X114403000Y-104657000D01*
X114403000Y-104476550D01*
X116795800Y-104476550D01*
X116795800Y-104942110D01*
X116892473Y-105175499D01*
X117071102Y-105354127D01*
X117304491Y-105450800D01*
X117895050Y-105450800D01*
X118053800Y-105292050D01*
X118053800Y-104317800D01*
X116954550Y-104317800D01*
X116795800Y-104476550D01*
X114403000Y-104476550D01*
X114403000Y-104403000D01*
X114423000Y-104403000D01*
X114423000Y-104383000D01*
X114677000Y-104383000D01*
X114677000Y-104403000D01*
X115676250Y-104403000D01*
X115835000Y-104244250D01*
X115835000Y-103653691D01*
X115738327Y-103420302D01*
X115559699Y-103241673D01*
X115423713Y-103185346D01*
X115435317Y-103183162D01*
X115651441Y-103044090D01*
X115796431Y-102831890D01*
X115847440Y-102580000D01*
X115847440Y-101250442D01*
X116232400Y-101635402D01*
G36*
X91724000Y-82971040D02*
X93500000Y-82971040D01*
X93500000Y-83410000D01*
X93557852Y-83700839D01*
X93722599Y-83947401D01*
X94688760Y-84913562D01*
X94688760Y-86088600D01*
X94733038Y-86323917D01*
X94872110Y-86540041D01*
X94940206Y-86586569D01*
X94797873Y-86728902D01*
X94701200Y-86962291D01*
X94701200Y-87552850D01*
X94859950Y-87711600D01*
X95834200Y-87711600D01*
X95834200Y-87691600D01*
X96088200Y-87691600D01*
X96088200Y-87711600D01*
X96108200Y-87711600D01*
X96108200Y-87965600D01*
X96088200Y-87965600D01*
X96088200Y-89064850D01*
X96246950Y-89223600D01*
X96712510Y-89223600D01*
X96945899Y-89126927D01*
X97002165Y-89070661D01*
X97028000Y-89075800D01*
X97053993Y-89070630D01*
X97238110Y-89196431D01*
X97330000Y-89215039D01*
X97330000Y-89900000D01*
X97387852Y-90190839D01*
X97552599Y-90437401D01*
X98283417Y-91168219D01*
X97946857Y-91307283D01*
X97683608Y-91570073D01*
X97633234Y-91691386D01*
X97443610Y-91881010D01*
X97251767Y-92168125D01*
X97243271Y-92210839D01*
X97184399Y-92506800D01*
X97184400Y-92506805D01*
X97184400Y-94985021D01*
X94703660Y-97465760D01*
X92885264Y-97465760D01*
X92893640Y-97424400D01*
X92893640Y-97418292D01*
X92935132Y-97375735D01*
X92993401Y-97336801D01*
X93037635Y-97270600D01*
X93093217Y-97213591D01*
X93786832Y-96146490D01*
X93975543Y-96068517D01*
X94238792Y-95805727D01*
X94381438Y-95462199D01*
X94381762Y-95090233D01*
X94239717Y-94746457D01*
X93976927Y-94483208D01*
X93633399Y-94340562D01*
X93261433Y-94340238D01*
X92917657Y-94482283D01*
X92654408Y-94745073D01*
X92511762Y-95088601D01*
X92511561Y-95319396D01*
X92361472Y-95550303D01*
X92246200Y-95526960D01*
X90746200Y-95526960D01*
X90510883Y-95571238D01*
X90294759Y-95710310D01*
X90248231Y-95778406D01*
X90105898Y-95636073D01*
X89872509Y-95539400D01*
X89281950Y-95539400D01*
X89123200Y-95698150D01*
X89123200Y-96672400D01*
X89143200Y-96672400D01*
X89143200Y-96926400D01*
X89123200Y-96926400D01*
X89123200Y-96946400D01*
X88869200Y-96946400D01*
X88869200Y-96926400D01*
X87769950Y-96926400D01*
X87611200Y-97085150D01*
X87611200Y-97550710D01*
X87700036Y-97765179D01*
X87608200Y-97986890D01*
X87608200Y-98977450D01*
X87766950Y-99136200D01*
X89366200Y-99136200D01*
X89366200Y-99116200D01*
X89620200Y-99116200D01*
X89620200Y-99136200D01*
X91219450Y-99136200D01*
X91378200Y-98977450D01*
X91378200Y-98071840D01*
X91904136Y-98071840D01*
X91895760Y-98113200D01*
X91895760Y-100413200D01*
X91940038Y-100648517D01*
X92079110Y-100864641D01*
X92291310Y-101009631D01*
X92543200Y-101060640D01*
X94017860Y-101060640D01*
X97708821Y-104751600D01*
X94212219Y-104751600D01*
X94154727Y-104694008D01*
X93811199Y-104551362D01*
X93439233Y-104551038D01*
X93095457Y-104693083D01*
X92832208Y-104955873D01*
X92689562Y-105299401D01*
X92689352Y-105540000D01*
X91044092Y-105540000D01*
X86710000Y-101205908D01*
X86710000Y-99548950D01*
X87608200Y-99548950D01*
X87608200Y-100539510D01*
X87704873Y-100772899D01*
X87883502Y-100951527D01*
X88116891Y-101048200D01*
X89207450Y-101048200D01*
X89366200Y-100889450D01*
X89366200Y-99390200D01*
X89620200Y-99390200D01*
X89620200Y-100889450D01*
X89778950Y-101048200D01*
X90869509Y-101048200D01*
X91102898Y-100951527D01*
X91281527Y-100772899D01*
X91378200Y-100539510D01*
X91378200Y-99548950D01*
X91219450Y-99390200D01*
X89620200Y-99390200D01*
X89366200Y-99390200D01*
X87766950Y-99390200D01*
X87608200Y-99548950D01*
X86710000Y-99548950D01*
X86710000Y-96048090D01*
X87611200Y-96048090D01*
X87611200Y-96513650D01*
X87769950Y-96672400D01*
X88869200Y-96672400D01*
X88869200Y-95698150D01*
X88710450Y-95539400D01*
X88119891Y-95539400D01*
X87886502Y-95636073D01*
X87707873Y-95814701D01*
X87611200Y-96048090D01*
X86710000Y-96048090D01*
X86710000Y-91293950D01*
X87992200Y-91293950D01*
X87992200Y-91759510D01*
X88088873Y-91992899D01*
X88267502Y-92171527D01*
X88500891Y-92268200D01*
X89091450Y-92268200D01*
X89250200Y-92109450D01*
X89250200Y-91135200D01*
X88150950Y-91135200D01*
X87992200Y-91293950D01*
X86710000Y-91293950D01*
X86710000Y-88627967D01*
X86948838Y-88627967D01*
X87090883Y-88971743D01*
X87353673Y-89234992D01*
X87697201Y-89377638D01*
X87802791Y-89377730D01*
X87872560Y-89424348D01*
X87999009Y-89449500D01*
X88024038Y-89582517D01*
X88163110Y-89798641D01*
X88252593Y-89859782D01*
X88088873Y-90023501D01*
X87992200Y-90256890D01*
X87992200Y-90722450D01*
X88150950Y-90881200D01*
X89250200Y-90881200D01*
X89250200Y-90861200D01*
X89504200Y-90861200D01*
X89504200Y-90881200D01*
X89524200Y-90881200D01*
X89524200Y-91135200D01*
X89504200Y-91135200D01*
X89504200Y-92109450D01*
X89662950Y-92268200D01*
X90253509Y-92268200D01*
X90486898Y-92171527D01*
X90628136Y-92030290D01*
X90663110Y-92084641D01*
X90875310Y-92229631D01*
X91127200Y-92280640D01*
X92627200Y-92280640D01*
X92862517Y-92236362D01*
X93078641Y-92097290D01*
X93223631Y-91885090D01*
X93249598Y-91756862D01*
X93483439Y-91710348D01*
X93552997Y-91663871D01*
X93657167Y-91663962D01*
X94000943Y-91521917D01*
X94264192Y-91259127D01*
X94406838Y-90915599D01*
X94407162Y-90543633D01*
X94265117Y-90199857D01*
X94002327Y-89936608D01*
X93658799Y-89793962D01*
X93286833Y-89793638D01*
X93039009Y-89896037D01*
X92994355Y-89865526D01*
X93078641Y-89811290D01*
X93223631Y-89599090D01*
X93247302Y-89482200D01*
X93294200Y-89482200D01*
X93563481Y-89428636D01*
X93707967Y-89428762D01*
X94051743Y-89286717D01*
X94314992Y-89023927D01*
X94457638Y-88680399D01*
X94457962Y-88308433D01*
X94381901Y-88124350D01*
X94701200Y-88124350D01*
X94701200Y-88714909D01*
X94797873Y-88948298D01*
X94976501Y-89126927D01*
X95209890Y-89223600D01*
X95675450Y-89223600D01*
X95834200Y-89064850D01*
X95834200Y-87965600D01*
X94859950Y-87965600D01*
X94701200Y-88124350D01*
X94381901Y-88124350D01*
X94315917Y-87964657D01*
X94053127Y-87701408D01*
X93709599Y-87558762D01*
X93337633Y-87558438D01*
X93098643Y-87657186D01*
X93091290Y-87645759D01*
X92879090Y-87500769D01*
X92627200Y-87449760D01*
X91127200Y-87449760D01*
X90891883Y-87494038D01*
X90675759Y-87633110D01*
X90628066Y-87702911D01*
X90591290Y-87645759D01*
X90379090Y-87500769D01*
X90127200Y-87449760D01*
X88627200Y-87449760D01*
X88391883Y-87494038D01*
X88252800Y-87583536D01*
X88070799Y-87507962D01*
X87698833Y-87507638D01*
X87355057Y-87649683D01*
X87091808Y-87912473D01*
X86949162Y-88256001D01*
X86948838Y-88627967D01*
X86710000Y-88627967D01*
X86710000Y-85044092D01*
X87294092Y-84460000D01*
X91000000Y-84460000D01*
X91271705Y-84405954D01*
X91502046Y-84252046D01*
X91655954Y-84021705D01*
X91710000Y-83750000D01*
X91710000Y-82968205D01*
X91724000Y-82971040D01*
X91724000Y-82971040D01*
G37*
X91724000Y-82971040D02*
X93500000Y-82971040D01*
X93500000Y-83410000D01*
X93557852Y-83700839D01*
X93722599Y-83947401D01*
X94688760Y-84913562D01*
X94688760Y-86088600D01*
X94733038Y-86323917D01*
X94872110Y-86540041D01*
X94940206Y-86586569D01*
X94797873Y-86728902D01*
X94701200Y-86962291D01*
X94701200Y-87552850D01*
X94859950Y-87711600D01*
X95834200Y-87711600D01*
X95834200Y-87691600D01*
X96088200Y-87691600D01*
X96088200Y-87711600D01*
X96108200Y-87711600D01*
X96108200Y-87965600D01*
X96088200Y-87965600D01*
X96088200Y-89064850D01*
X96246950Y-89223600D01*
X96712510Y-89223600D01*
X96945899Y-89126927D01*
X97002165Y-89070661D01*
X97028000Y-89075800D01*
X97053993Y-89070630D01*
X97238110Y-89196431D01*
X97330000Y-89215039D01*
X97330000Y-89900000D01*
X97387852Y-90190839D01*
X97552599Y-90437401D01*
X98283417Y-91168219D01*
X97946857Y-91307283D01*
X97683608Y-91570073D01*
X97633234Y-91691386D01*
X97443610Y-91881010D01*
X97251767Y-92168125D01*
X97243271Y-92210839D01*
X97184399Y-92506800D01*
X97184400Y-92506805D01*
X97184400Y-94985021D01*
X94703660Y-97465760D01*
X92885264Y-97465760D01*
X92893640Y-97424400D01*
X92893640Y-97418292D01*
X92935132Y-97375735D01*
X92993401Y-97336801D01*
X93037635Y-97270600D01*
X93093217Y-97213591D01*
X93786832Y-96146490D01*
X93975543Y-96068517D01*
X94238792Y-95805727D01*
X94381438Y-95462199D01*
X94381762Y-95090233D01*
X94239717Y-94746457D01*
X93976927Y-94483208D01*
X93633399Y-94340562D01*
X93261433Y-94340238D01*
X92917657Y-94482283D01*
X92654408Y-94745073D01*
X92511762Y-95088601D01*
X92511561Y-95319396D01*
X92361472Y-95550303D01*
X92246200Y-95526960D01*
X90746200Y-95526960D01*
X90510883Y-95571238D01*
X90294759Y-95710310D01*
X90248231Y-95778406D01*
X90105898Y-95636073D01*
X89872509Y-95539400D01*
X89281950Y-95539400D01*
X89123200Y-95698150D01*
X89123200Y-96672400D01*
X89143200Y-96672400D01*
X89143200Y-96926400D01*
X89123200Y-96926400D01*
X89123200Y-96946400D01*
X88869200Y-96946400D01*
X88869200Y-96926400D01*
X87769950Y-96926400D01*
X87611200Y-97085150D01*
X87611200Y-97550710D01*
X87700036Y-97765179D01*
X87608200Y-97986890D01*
X87608200Y-98977450D01*
X87766950Y-99136200D01*
X89366200Y-99136200D01*
X89366200Y-99116200D01*
X89620200Y-99116200D01*
X89620200Y-99136200D01*
X91219450Y-99136200D01*
X91378200Y-98977450D01*
X91378200Y-98071840D01*
X91904136Y-98071840D01*
X91895760Y-98113200D01*
X91895760Y-100413200D01*
X91940038Y-100648517D01*
X92079110Y-100864641D01*
X92291310Y-101009631D01*
X92543200Y-101060640D01*
X94017860Y-101060640D01*
X97708821Y-104751600D01*
X94212219Y-104751600D01*
X94154727Y-104694008D01*
X93811199Y-104551362D01*
X93439233Y-104551038D01*
X93095457Y-104693083D01*
X92832208Y-104955873D01*
X92689562Y-105299401D01*
X92689352Y-105540000D01*
X91044092Y-105540000D01*
X86710000Y-101205908D01*
X86710000Y-99548950D01*
X87608200Y-99548950D01*
X87608200Y-100539510D01*
X87704873Y-100772899D01*
X87883502Y-100951527D01*
X88116891Y-101048200D01*
X89207450Y-101048200D01*
X89366200Y-100889450D01*
X89366200Y-99390200D01*
X89620200Y-99390200D01*
X89620200Y-100889450D01*
X89778950Y-101048200D01*
X90869509Y-101048200D01*
X91102898Y-100951527D01*
X91281527Y-100772899D01*
X91378200Y-100539510D01*
X91378200Y-99548950D01*
X91219450Y-99390200D01*
X89620200Y-99390200D01*
X89366200Y-99390200D01*
X87766950Y-99390200D01*
X87608200Y-99548950D01*
X86710000Y-99548950D01*
X86710000Y-96048090D01*
X87611200Y-96048090D01*
X87611200Y-96513650D01*
X87769950Y-96672400D01*
X88869200Y-96672400D01*
X88869200Y-95698150D01*
X88710450Y-95539400D01*
X88119891Y-95539400D01*
X87886502Y-95636073D01*
X87707873Y-95814701D01*
X87611200Y-96048090D01*
X86710000Y-96048090D01*
X86710000Y-91293950D01*
X87992200Y-91293950D01*
X87992200Y-91759510D01*
X88088873Y-91992899D01*
X88267502Y-92171527D01*
X88500891Y-92268200D01*
X89091450Y-92268200D01*
X89250200Y-92109450D01*
X89250200Y-91135200D01*
X88150950Y-91135200D01*
X87992200Y-91293950D01*
X86710000Y-91293950D01*
X86710000Y-88627967D01*
X86948838Y-88627967D01*
X87090883Y-88971743D01*
X87353673Y-89234992D01*
X87697201Y-89377638D01*
X87802791Y-89377730D01*
X87872560Y-89424348D01*
X87999009Y-89449500D01*
X88024038Y-89582517D01*
X88163110Y-89798641D01*
X88252593Y-89859782D01*
X88088873Y-90023501D01*
X87992200Y-90256890D01*
X87992200Y-90722450D01*
X88150950Y-90881200D01*
X89250200Y-90881200D01*
X89250200Y-90861200D01*
X89504200Y-90861200D01*
X89504200Y-90881200D01*
X89524200Y-90881200D01*
X89524200Y-91135200D01*
X89504200Y-91135200D01*
X89504200Y-92109450D01*
X89662950Y-92268200D01*
X90253509Y-92268200D01*
X90486898Y-92171527D01*
X90628136Y-92030290D01*
X90663110Y-92084641D01*
X90875310Y-92229631D01*
X91127200Y-92280640D01*
X92627200Y-92280640D01*
X92862517Y-92236362D01*
X93078641Y-92097290D01*
X93223631Y-91885090D01*
X93249598Y-91756862D01*
X93483439Y-91710348D01*
X93552997Y-91663871D01*
X93657167Y-91663962D01*
X94000943Y-91521917D01*
X94264192Y-91259127D01*
X94406838Y-90915599D01*
X94407162Y-90543633D01*
X94265117Y-90199857D01*
X94002327Y-89936608D01*
X93658799Y-89793962D01*
X93286833Y-89793638D01*
X93039009Y-89896037D01*
X92994355Y-89865526D01*
X93078641Y-89811290D01*
X93223631Y-89599090D01*
X93247302Y-89482200D01*
X93294200Y-89482200D01*
X93563481Y-89428636D01*
X93707967Y-89428762D01*
X94051743Y-89286717D01*
X94314992Y-89023927D01*
X94457638Y-88680399D01*
X94457962Y-88308433D01*
X94381901Y-88124350D01*
X94701200Y-88124350D01*
X94701200Y-88714909D01*
X94797873Y-88948298D01*
X94976501Y-89126927D01*
X95209890Y-89223600D01*
X95675450Y-89223600D01*
X95834200Y-89064850D01*
X95834200Y-87965600D01*
X94859950Y-87965600D01*
X94701200Y-88124350D01*
X94381901Y-88124350D01*
X94315917Y-87964657D01*
X94053127Y-87701408D01*
X93709599Y-87558762D01*
X93337633Y-87558438D01*
X93098643Y-87657186D01*
X93091290Y-87645759D01*
X92879090Y-87500769D01*
X92627200Y-87449760D01*
X91127200Y-87449760D01*
X90891883Y-87494038D01*
X90675759Y-87633110D01*
X90628066Y-87702911D01*
X90591290Y-87645759D01*
X90379090Y-87500769D01*
X90127200Y-87449760D01*
X88627200Y-87449760D01*
X88391883Y-87494038D01*
X88252800Y-87583536D01*
X88070799Y-87507962D01*
X87698833Y-87507638D01*
X87355057Y-87649683D01*
X87091808Y-87912473D01*
X86949162Y-88256001D01*
X86948838Y-88627967D01*
X86710000Y-88627967D01*
X86710000Y-85044092D01*
X87294092Y-84460000D01*
X91000000Y-84460000D01*
X91271705Y-84405954D01*
X91502046Y-84252046D01*
X91655954Y-84021705D01*
X91710000Y-83750000D01*
X91710000Y-82968205D01*
X91724000Y-82971040D01*
G36*
X113593762Y-97425401D02*
X113593742Y-97447797D01*
X113517057Y-97479483D01*
X113253808Y-97742273D01*
X113111162Y-98085801D01*
X113110838Y-98457767D01*
X113252883Y-98801543D01*
X113515673Y-99064792D01*
X113765547Y-99168549D01*
X115029558Y-100432560D01*
X113900000Y-100432560D01*
X113664683Y-100476838D01*
X113448559Y-100615910D01*
X113303569Y-100828110D01*
X113252560Y-101080000D01*
X113252560Y-101511607D01*
X113111330Y-101415109D01*
X112859440Y-101364100D01*
X111660560Y-101364100D01*
X111425243Y-101408378D01*
X111209119Y-101547450D01*
X111064129Y-101759650D01*
X111013120Y-102011540D01*
X111013120Y-103210420D01*
X111057398Y-103445737D01*
X111196470Y-103661861D01*
X111197467Y-103662543D01*
X111064129Y-103857690D01*
X111013120Y-104109580D01*
X111013120Y-104751600D01*
X105897580Y-104751600D01*
X106447045Y-104202135D01*
X106680641Y-104248600D01*
X106739359Y-104248600D01*
X107312848Y-104134526D01*
X107778442Y-103823426D01*
X107783238Y-103848917D01*
X107922310Y-104065041D01*
X108134510Y-104210031D01*
X108386400Y-104261040D01*
X110113600Y-104261040D01*
X110348917Y-104216762D01*
X110565041Y-104077690D01*
X110710031Y-103865490D01*
X110761040Y-103613600D01*
X110761040Y-101886400D01*
X110716762Y-101651083D01*
X110577690Y-101434959D01*
X110446031Y-101345000D01*
X112000000Y-101345000D01*
X112338675Y-101277633D01*
X112625790Y-101085790D01*
X112817633Y-100798675D01*
X112885000Y-100460000D01*
X112885000Y-97636580D01*
X113136579Y-97385000D01*
X113610538Y-97385000D01*
X113593762Y-97425401D01*
X113593762Y-97425401D01*
G37*
X113593762Y-97425401D02*
X113593742Y-97447797D01*
X113517057Y-97479483D01*
X113253808Y-97742273D01*
X113111162Y-98085801D01*
X113110838Y-98457767D01*
X113252883Y-98801543D01*
X113515673Y-99064792D01*
X113765547Y-99168549D01*
X115029558Y-100432560D01*
X113900000Y-100432560D01*
X113664683Y-100476838D01*
X113448559Y-100615910D01*
X113303569Y-100828110D01*
X113252560Y-101080000D01*
X113252560Y-101511607D01*
X113111330Y-101415109D01*
X112859440Y-101364100D01*
X111660560Y-101364100D01*
X111425243Y-101408378D01*
X111209119Y-101547450D01*
X111064129Y-101759650D01*
X111013120Y-102011540D01*
X111013120Y-103210420D01*
X111057398Y-103445737D01*
X111196470Y-103661861D01*
X111197467Y-103662543D01*
X111064129Y-103857690D01*
X111013120Y-104109580D01*
X111013120Y-104751600D01*
X105897580Y-104751600D01*
X106447045Y-104202135D01*
X106680641Y-104248600D01*
X106739359Y-104248600D01*
X107312848Y-104134526D01*
X107778442Y-103823426D01*
X107783238Y-103848917D01*
X107922310Y-104065041D01*
X108134510Y-104210031D01*
X108386400Y-104261040D01*
X110113600Y-104261040D01*
X110348917Y-104216762D01*
X110565041Y-104077690D01*
X110710031Y-103865490D01*
X110761040Y-103613600D01*
X110761040Y-101886400D01*
X110716762Y-101651083D01*
X110577690Y-101434959D01*
X110446031Y-101345000D01*
X112000000Y-101345000D01*
X112338675Y-101277633D01*
X112625790Y-101085790D01*
X112817633Y-100798675D01*
X112885000Y-100460000D01*
X112885000Y-97636580D01*
X113136579Y-97385000D01*
X113610538Y-97385000D01*
X113593762Y-97425401D01*
G36*
X102528361Y-92243748D02*
X102819200Y-92301600D01*
X105239374Y-92301600D01*
X105183400Y-92583000D01*
X105183400Y-94661798D01*
X104677579Y-95167619D01*
X104170000Y-95066655D01*
X103596511Y-95180729D01*
X103110330Y-95505585D01*
X102903539Y-95815069D01*
X102532036Y-95399268D01*
X102004791Y-95145291D01*
X101989026Y-95142642D01*
X101757000Y-95263783D01*
X101757000Y-96623000D01*
X101777000Y-96623000D01*
X101777000Y-96877000D01*
X101757000Y-96877000D01*
X101757000Y-98236217D01*
X101948828Y-98336370D01*
X101567133Y-98718065D01*
X101027152Y-98825474D01*
X100540971Y-99150330D01*
X100360000Y-99421172D01*
X100179029Y-99150330D01*
X99692848Y-98825474D01*
X99119359Y-98711400D01*
X99060641Y-98711400D01*
X98487152Y-98825474D01*
X98000971Y-99150330D01*
X97676115Y-99636511D01*
X97562041Y-100210000D01*
X97676115Y-100783489D01*
X98000971Y-101269670D01*
X98315752Y-101480000D01*
X98000971Y-101690330D01*
X97676115Y-102176511D01*
X97669607Y-102209228D01*
X95690640Y-100230260D01*
X95690640Y-98981940D01*
X97560666Y-97111913D01*
X100144816Y-97111913D01*
X100338046Y-97664320D01*
X100727964Y-98100732D01*
X101255209Y-98354709D01*
X101270974Y-98357358D01*
X101503000Y-98236217D01*
X101503000Y-96877000D01*
X100289076Y-96877000D01*
X100144816Y-97111913D01*
X97560666Y-97111913D01*
X98284492Y-96388087D01*
X100144816Y-96388087D01*
X100289076Y-96623000D01*
X101503000Y-96623000D01*
X101503000Y-95263783D01*
X101270974Y-95142642D01*
X101255209Y-95145291D01*
X100727964Y-95399268D01*
X100338046Y-95835680D01*
X100144816Y-96388087D01*
X98284492Y-96388087D01*
X98478234Y-96194345D01*
X98598343Y-96144717D01*
X98861592Y-95881927D01*
X99004238Y-95538399D01*
X99004562Y-95166433D01*
X98954400Y-95045031D01*
X98954400Y-92914318D01*
X99004743Y-92893517D01*
X99075073Y-92823310D01*
X99279601Y-92908238D01*
X99651567Y-92908562D01*
X99995343Y-92766517D01*
X100258592Y-92503727D01*
X100401238Y-92160199D01*
X100401269Y-92124898D01*
X100575001Y-92197038D01*
X100946967Y-92197362D01*
X101136562Y-92119023D01*
X101169673Y-92152192D01*
X101513201Y-92294838D01*
X101885167Y-92295162D01*
X102228943Y-92153117D01*
X102294612Y-92087562D01*
X102528361Y-92243748D01*
X102528361Y-92243748D01*
G37*
X102528361Y-92243748D02*
X102819200Y-92301600D01*
X105239374Y-92301600D01*
X105183400Y-92583000D01*
X105183400Y-94661798D01*
X104677579Y-95167619D01*
X104170000Y-95066655D01*
X103596511Y-95180729D01*
X103110330Y-95505585D01*
X102903539Y-95815069D01*
X102532036Y-95399268D01*
X102004791Y-95145291D01*
X101989026Y-95142642D01*
X101757000Y-95263783D01*
X101757000Y-96623000D01*
X101777000Y-96623000D01*
X101777000Y-96877000D01*
X101757000Y-96877000D01*
X101757000Y-98236217D01*
X101948828Y-98336370D01*
X101567133Y-98718065D01*
X101027152Y-98825474D01*
X100540971Y-99150330D01*
X100360000Y-99421172D01*
X100179029Y-99150330D01*
X99692848Y-98825474D01*
X99119359Y-98711400D01*
X99060641Y-98711400D01*
X98487152Y-98825474D01*
X98000971Y-99150330D01*
X97676115Y-99636511D01*
X97562041Y-100210000D01*
X97676115Y-100783489D01*
X98000971Y-101269670D01*
X98315752Y-101480000D01*
X98000971Y-101690330D01*
X97676115Y-102176511D01*
X97669607Y-102209228D01*
X95690640Y-100230260D01*
X95690640Y-98981940D01*
X97560666Y-97111913D01*
X100144816Y-97111913D01*
X100338046Y-97664320D01*
X100727964Y-98100732D01*
X101255209Y-98354709D01*
X101270974Y-98357358D01*
X101503000Y-98236217D01*
X101503000Y-96877000D01*
X100289076Y-96877000D01*
X100144816Y-97111913D01*
X97560666Y-97111913D01*
X98284492Y-96388087D01*
X100144816Y-96388087D01*
X100289076Y-96623000D01*
X101503000Y-96623000D01*
X101503000Y-95263783D01*
X101270974Y-95142642D01*
X101255209Y-95145291D01*
X100727964Y-95399268D01*
X100338046Y-95835680D01*
X100144816Y-96388087D01*
X98284492Y-96388087D01*
X98478234Y-96194345D01*
X98598343Y-96144717D01*
X98861592Y-95881927D01*
X99004238Y-95538399D01*
X99004562Y-95166433D01*
X98954400Y-95045031D01*
X98954400Y-92914318D01*
X99004743Y-92893517D01*
X99075073Y-92823310D01*
X99279601Y-92908238D01*
X99651567Y-92908562D01*
X99995343Y-92766517D01*
X100258592Y-92503727D01*
X100401238Y-92160199D01*
X100401269Y-92124898D01*
X100575001Y-92197038D01*
X100946967Y-92197362D01*
X101136562Y-92119023D01*
X101169673Y-92152192D01*
X101513201Y-92294838D01*
X101885167Y-92295162D01*
X102228943Y-92153117D01*
X102294612Y-92087562D01*
X102528361Y-92243748D01*
G36*
X121060200Y-99949000D02*
X121080200Y-99949000D01*
X121080200Y-100203000D01*
X121060200Y-100203000D01*
X121060200Y-100223000D01*
X120806200Y-100223000D01*
X120806200Y-100203000D01*
X120786200Y-100203000D01*
X120786200Y-99949000D01*
X120806200Y-99949000D01*
X120806200Y-99929000D01*
X121060200Y-99929000D01*
X121060200Y-99949000D01*
X121060200Y-99949000D01*
G37*
X121060200Y-99949000D02*
X121080200Y-99949000D01*
X121080200Y-100203000D01*
X121060200Y-100203000D01*
X121060200Y-100223000D01*
X120806200Y-100223000D01*
X120806200Y-100203000D01*
X120786200Y-100203000D01*
X120786200Y-99949000D01*
X120806200Y-99949000D01*
X120806200Y-99929000D01*
X121060200Y-99929000D01*
X121060200Y-99949000D01*
G36*
X121375000Y-80210000D02*
X122479442Y-80210000D01*
X122521838Y-80435317D01*
X122660910Y-80651441D01*
X122873110Y-80796431D01*
X122886197Y-80799081D01*
X122673559Y-80935910D01*
X122528569Y-81148110D01*
X122477560Y-81400000D01*
X122477560Y-81575875D01*
X122422599Y-81612599D01*
X122170320Y-81864878D01*
X122124833Y-81864838D01*
X121781057Y-82006883D01*
X121517808Y-82269673D01*
X121375162Y-82613201D01*
X121374838Y-82985167D01*
X121516883Y-83328943D01*
X121779673Y-83592192D01*
X122003079Y-83684959D01*
X121614722Y-84072637D01*
X121365284Y-84673352D01*
X121364716Y-85323795D01*
X121562803Y-85803200D01*
X121107200Y-85803200D01*
X120816360Y-85861052D01*
X120569799Y-86025799D01*
X119580617Y-87014981D01*
X119419387Y-86625736D01*
X119152532Y-86527073D01*
X118179605Y-87500000D01*
X118193748Y-87514143D01*
X118014143Y-87693748D01*
X118000000Y-87679605D01*
X117027073Y-88652532D01*
X117125736Y-88919387D01*
X117735461Y-89145908D01*
X118086600Y-89132915D01*
X118086600Y-89601198D01*
X117462599Y-90225199D01*
X117297852Y-90471761D01*
X117240000Y-90762600D01*
X117240000Y-91044953D01*
X117075057Y-91113106D01*
X116614722Y-91572637D01*
X116365284Y-92173352D01*
X116364716Y-92823795D01*
X116613106Y-93424943D01*
X117072637Y-93885278D01*
X117673352Y-94134716D01*
X118323795Y-94135284D01*
X118924943Y-93886894D01*
X119385278Y-93427363D01*
X119634716Y-92826648D01*
X119635284Y-92176205D01*
X119386894Y-91575057D01*
X118927363Y-91114722D01*
X118782735Y-91054667D01*
X119384001Y-90453401D01*
X119548748Y-90206840D01*
X119606600Y-89916000D01*
X119606600Y-89138602D01*
X121422002Y-87323200D01*
X123647200Y-87323200D01*
X123938039Y-87265348D01*
X124184601Y-87100601D01*
X124790000Y-86495202D01*
X124790000Y-97502399D01*
X124506832Y-97384818D01*
X124055150Y-97384424D01*
X123637699Y-97556911D01*
X123318033Y-97876019D01*
X123144818Y-98293168D01*
X123144503Y-98654737D01*
X122949369Y-98654567D01*
X122614201Y-98319399D01*
X122581337Y-98297440D01*
X122620000Y-98297440D01*
X122855317Y-98253162D01*
X123071441Y-98114090D01*
X123216431Y-97901890D01*
X123267440Y-97650000D01*
X123267440Y-96394139D01*
X123625787Y-96035792D01*
X123625790Y-96035790D01*
X123817633Y-95748675D01*
X123859460Y-95538399D01*
X123885001Y-95410000D01*
X123885000Y-95409995D01*
X123885000Y-91403398D01*
X123924943Y-91386894D01*
X124385278Y-90927363D01*
X124634716Y-90326648D01*
X124635284Y-89676205D01*
X124386894Y-89075057D01*
X123927363Y-88614722D01*
X123326648Y-88365284D01*
X122676205Y-88364716D01*
X122075057Y-88613106D01*
X121614722Y-89072637D01*
X121365284Y-89673352D01*
X121364716Y-90323795D01*
X121613106Y-90924943D01*
X122072637Y-91385278D01*
X122115000Y-91402869D01*
X122115000Y-94702560D01*
X120120000Y-94702560D01*
X119884683Y-94746838D01*
X119668559Y-94885910D01*
X119523569Y-95098110D01*
X119472560Y-95350000D01*
X119472560Y-97650000D01*
X119516838Y-97885317D01*
X119655910Y-98101441D01*
X119657163Y-98102297D01*
X119393960Y-98154652D01*
X119147399Y-98319399D01*
X118688238Y-98778560D01*
X117483200Y-98778560D01*
X117247883Y-98822838D01*
X117031759Y-98961910D01*
X117010145Y-98993543D01*
X116314042Y-98297440D01*
X118320000Y-98297440D01*
X118555317Y-98253162D01*
X118771441Y-98114090D01*
X118916431Y-97901890D01*
X118967440Y-97650000D01*
X118967440Y-95350000D01*
X118923162Y-95114683D01*
X118784090Y-94898559D01*
X118571890Y-94753569D01*
X118320000Y-94702560D01*
X117547885Y-94702560D01*
X117540839Y-94697852D01*
X117250000Y-94640000D01*
X116400000Y-94640000D01*
X116109161Y-94697852D01*
X116102115Y-94702560D01*
X115820000Y-94702560D01*
X115584683Y-94746838D01*
X115368559Y-94885910D01*
X115223569Y-95098110D01*
X115172560Y-95350000D01*
X115172560Y-95615000D01*
X112770000Y-95615000D01*
X112431325Y-95682367D01*
X112144210Y-95874210D01*
X112144208Y-95874213D01*
X112020000Y-95998421D01*
X112020000Y-95784802D01*
X113667401Y-94137401D01*
X113801011Y-93937440D01*
X113880000Y-93937440D01*
X114115317Y-93893162D01*
X114331441Y-93754090D01*
X114476431Y-93541890D01*
X114527440Y-93290000D01*
X114527440Y-91990000D01*
X114483162Y-91754683D01*
X114402574Y-91629446D01*
X114495000Y-91406310D01*
X114495000Y-90915750D01*
X114336250Y-90757000D01*
X113237000Y-90757000D01*
X113237000Y-90777000D01*
X112983000Y-90777000D01*
X112983000Y-90757000D01*
X112963000Y-90757000D01*
X112963000Y-90503000D01*
X112983000Y-90503000D01*
X112983000Y-89746250D01*
X112988000Y-89741250D01*
X112988000Y-89503750D01*
X113237000Y-89503750D01*
X113237000Y-90503000D01*
X114336250Y-90503000D01*
X114495000Y-90344250D01*
X114495000Y-89853690D01*
X114401080Y-89626946D01*
X114403327Y-89624699D01*
X114500000Y-89391310D01*
X114500000Y-88900750D01*
X114341250Y-88742000D01*
X113242000Y-88742000D01*
X113242000Y-89498750D01*
X113237000Y-89503750D01*
X112988000Y-89503750D01*
X112988000Y-88742000D01*
X112968000Y-88742000D01*
X112968000Y-88488000D01*
X112988000Y-88488000D01*
X112988000Y-88468000D01*
X113242000Y-88468000D01*
X113242000Y-88488000D01*
X114341250Y-88488000D01*
X114500000Y-88329250D01*
X114500000Y-87838690D01*
X114403327Y-87605301D01*
X114401017Y-87602991D01*
X114456431Y-87521890D01*
X114507440Y-87270000D01*
X114507440Y-87235461D01*
X116354092Y-87235461D01*
X116378144Y-87885460D01*
X116580613Y-88374264D01*
X116847468Y-88472927D01*
X117820395Y-87500000D01*
X116847468Y-86527073D01*
X116580613Y-86625736D01*
X116354092Y-87235461D01*
X114507440Y-87235461D01*
X114507440Y-86347468D01*
X117027073Y-86347468D01*
X118000000Y-87320395D01*
X118972927Y-86347468D01*
X118874264Y-86080613D01*
X118264539Y-85854092D01*
X117614540Y-85878144D01*
X117125736Y-86080613D01*
X117027073Y-86347468D01*
X114507440Y-86347468D01*
X114507440Y-85970000D01*
X114463162Y-85734683D01*
X114324090Y-85518559D01*
X114217583Y-85445786D01*
X114265000Y-85331310D01*
X114265000Y-84865750D01*
X114106252Y-84707002D01*
X114193504Y-84707002D01*
X114453201Y-84814838D01*
X114825167Y-84815162D01*
X115168943Y-84673117D01*
X115432192Y-84410327D01*
X115432328Y-84410000D01*
X120090000Y-84410000D01*
X120380839Y-84352148D01*
X120627401Y-84187401D01*
X120947401Y-83867401D01*
X121112148Y-83620840D01*
X121170000Y-83330000D01*
X121170000Y-83071563D01*
X121306431Y-82871890D01*
X121357440Y-82620000D01*
X121357440Y-80620000D01*
X121313162Y-80384683D01*
X121175180Y-80170253D01*
X121375000Y-80210000D01*
X121375000Y-80210000D01*
G37*
X121375000Y-80210000D02*
X122479442Y-80210000D01*
X122521838Y-80435317D01*
X122660910Y-80651441D01*
X122873110Y-80796431D01*
X122886197Y-80799081D01*
X122673559Y-80935910D01*
X122528569Y-81148110D01*
X122477560Y-81400000D01*
X122477560Y-81575875D01*
X122422599Y-81612599D01*
X122170320Y-81864878D01*
X122124833Y-81864838D01*
X121781057Y-82006883D01*
X121517808Y-82269673D01*
X121375162Y-82613201D01*
X121374838Y-82985167D01*
X121516883Y-83328943D01*
X121779673Y-83592192D01*
X122003079Y-83684959D01*
X121614722Y-84072637D01*
X121365284Y-84673352D01*
X121364716Y-85323795D01*
X121562803Y-85803200D01*
X121107200Y-85803200D01*
X120816360Y-85861052D01*
X120569799Y-86025799D01*
X119580617Y-87014981D01*
X119419387Y-86625736D01*
X119152532Y-86527073D01*
X118179605Y-87500000D01*
X118193748Y-87514143D01*
X118014143Y-87693748D01*
X118000000Y-87679605D01*
X117027073Y-88652532D01*
X117125736Y-88919387D01*
X117735461Y-89145908D01*
X118086600Y-89132915D01*
X118086600Y-89601198D01*
X117462599Y-90225199D01*
X117297852Y-90471761D01*
X117240000Y-90762600D01*
X117240000Y-91044953D01*
X117075057Y-91113106D01*
X116614722Y-91572637D01*
X116365284Y-92173352D01*
X116364716Y-92823795D01*
X116613106Y-93424943D01*
X117072637Y-93885278D01*
X117673352Y-94134716D01*
X118323795Y-94135284D01*
X118924943Y-93886894D01*
X119385278Y-93427363D01*
X119634716Y-92826648D01*
X119635284Y-92176205D01*
X119386894Y-91575057D01*
X118927363Y-91114722D01*
X118782735Y-91054667D01*
X119384001Y-90453401D01*
X119548748Y-90206840D01*
X119606600Y-89916000D01*
X119606600Y-89138602D01*
X121422002Y-87323200D01*
X123647200Y-87323200D01*
X123938039Y-87265348D01*
X124184601Y-87100601D01*
X124790000Y-86495202D01*
X124790000Y-97502399D01*
X124506832Y-97384818D01*
X124055150Y-97384424D01*
X123637699Y-97556911D01*
X123318033Y-97876019D01*
X123144818Y-98293168D01*
X123144503Y-98654737D01*
X122949369Y-98654567D01*
X122614201Y-98319399D01*
X122581337Y-98297440D01*
X122620000Y-98297440D01*
X122855317Y-98253162D01*
X123071441Y-98114090D01*
X123216431Y-97901890D01*
X123267440Y-97650000D01*
X123267440Y-96394139D01*
X123625787Y-96035792D01*
X123625790Y-96035790D01*
X123817633Y-95748675D01*
X123859460Y-95538399D01*
X123885001Y-95410000D01*
X123885000Y-95409995D01*
X123885000Y-91403398D01*
X123924943Y-91386894D01*
X124385278Y-90927363D01*
X124634716Y-90326648D01*
X124635284Y-89676205D01*
X124386894Y-89075057D01*
X123927363Y-88614722D01*
X123326648Y-88365284D01*
X122676205Y-88364716D01*
X122075057Y-88613106D01*
X121614722Y-89072637D01*
X121365284Y-89673352D01*
X121364716Y-90323795D01*
X121613106Y-90924943D01*
X122072637Y-91385278D01*
X122115000Y-91402869D01*
X122115000Y-94702560D01*
X120120000Y-94702560D01*
X119884683Y-94746838D01*
X119668559Y-94885910D01*
X119523569Y-95098110D01*
X119472560Y-95350000D01*
X119472560Y-97650000D01*
X119516838Y-97885317D01*
X119655910Y-98101441D01*
X119657163Y-98102297D01*
X119393960Y-98154652D01*
X119147399Y-98319399D01*
X118688238Y-98778560D01*
X117483200Y-98778560D01*
X117247883Y-98822838D01*
X117031759Y-98961910D01*
X117010145Y-98993543D01*
X116314042Y-98297440D01*
X118320000Y-98297440D01*
X118555317Y-98253162D01*
X118771441Y-98114090D01*
X118916431Y-97901890D01*
X118967440Y-97650000D01*
X118967440Y-95350000D01*
X118923162Y-95114683D01*
X118784090Y-94898559D01*
X118571890Y-94753569D01*
X118320000Y-94702560D01*
X117547885Y-94702560D01*
X117540839Y-94697852D01*
X117250000Y-94640000D01*
X116400000Y-94640000D01*
X116109161Y-94697852D01*
X116102115Y-94702560D01*
X115820000Y-94702560D01*
X115584683Y-94746838D01*
X115368559Y-94885910D01*
X115223569Y-95098110D01*
X115172560Y-95350000D01*
X115172560Y-95615000D01*
X112770000Y-95615000D01*
X112431325Y-95682367D01*
X112144210Y-95874210D01*
X112144208Y-95874213D01*
X112020000Y-95998421D01*
X112020000Y-95784802D01*
X113667401Y-94137401D01*
X113801011Y-93937440D01*
X113880000Y-93937440D01*
X114115317Y-93893162D01*
X114331441Y-93754090D01*
X114476431Y-93541890D01*
X114527440Y-93290000D01*
X114527440Y-91990000D01*
X114483162Y-91754683D01*
X114402574Y-91629446D01*
X114495000Y-91406310D01*
X114495000Y-90915750D01*
X114336250Y-90757000D01*
X113237000Y-90757000D01*
X113237000Y-90777000D01*
X112983000Y-90777000D01*
X112983000Y-90757000D01*
X112963000Y-90757000D01*
X112963000Y-90503000D01*
X112983000Y-90503000D01*
X112983000Y-89746250D01*
X112988000Y-89741250D01*
X112988000Y-89503750D01*
X113237000Y-89503750D01*
X113237000Y-90503000D01*
X114336250Y-90503000D01*
X114495000Y-90344250D01*
X114495000Y-89853690D01*
X114401080Y-89626946D01*
X114403327Y-89624699D01*
X114500000Y-89391310D01*
X114500000Y-88900750D01*
X114341250Y-88742000D01*
X113242000Y-88742000D01*
X113242000Y-89498750D01*
X113237000Y-89503750D01*
X112988000Y-89503750D01*
X112988000Y-88742000D01*
X112968000Y-88742000D01*
X112968000Y-88488000D01*
X112988000Y-88488000D01*
X112988000Y-88468000D01*
X113242000Y-88468000D01*
X113242000Y-88488000D01*
X114341250Y-88488000D01*
X114500000Y-88329250D01*
X114500000Y-87838690D01*
X114403327Y-87605301D01*
X114401017Y-87602991D01*
X114456431Y-87521890D01*
X114507440Y-87270000D01*
X114507440Y-87235461D01*
X116354092Y-87235461D01*
X116378144Y-87885460D01*
X116580613Y-88374264D01*
X116847468Y-88472927D01*
X117820395Y-87500000D01*
X116847468Y-86527073D01*
X116580613Y-86625736D01*
X116354092Y-87235461D01*
X114507440Y-87235461D01*
X114507440Y-86347468D01*
X117027073Y-86347468D01*
X118000000Y-87320395D01*
X118972927Y-86347468D01*
X118874264Y-86080613D01*
X118264539Y-85854092D01*
X117614540Y-85878144D01*
X117125736Y-86080613D01*
X117027073Y-86347468D01*
X114507440Y-86347468D01*
X114507440Y-85970000D01*
X114463162Y-85734683D01*
X114324090Y-85518559D01*
X114217583Y-85445786D01*
X114265000Y-85331310D01*
X114265000Y-84865750D01*
X114106252Y-84707002D01*
X114193504Y-84707002D01*
X114453201Y-84814838D01*
X114825167Y-84815162D01*
X115168943Y-84673117D01*
X115432192Y-84410327D01*
X115432328Y-84410000D01*
X120090000Y-84410000D01*
X120380839Y-84352148D01*
X120627401Y-84187401D01*
X120947401Y-83867401D01*
X121112148Y-83620840D01*
X121170000Y-83330000D01*
X121170000Y-83071563D01*
X121306431Y-82871890D01*
X121357440Y-82620000D01*
X121357440Y-80620000D01*
X121313162Y-80384683D01*
X121175180Y-80170253D01*
X121375000Y-80210000D01*
G36*
X113007000Y-84453000D02*
X113027000Y-84453000D01*
X113027000Y-84707000D01*
X113007000Y-84707000D01*
X113007000Y-84727000D01*
X112753000Y-84727000D01*
X112753000Y-84707000D01*
X112733000Y-84707000D01*
X112733000Y-84453000D01*
X112753000Y-84453000D01*
X112753000Y-84433000D01*
X113007000Y-84433000D01*
X113007000Y-84453000D01*
X113007000Y-84453000D01*
G37*
X113007000Y-84453000D02*
X113027000Y-84453000D01*
X113027000Y-84707000D01*
X113007000Y-84707000D01*
X113007000Y-84727000D01*
X112753000Y-84727000D01*
X112753000Y-84707000D01*
X112733000Y-84707000D01*
X112733000Y-84453000D01*
X112753000Y-84453000D01*
X112753000Y-84433000D01*
X113007000Y-84433000D01*
X113007000Y-84453000D01*
G36*
X100176115Y-70323489D02*
X100500971Y-70809670D01*
X100725501Y-70959697D01*
X100691726Y-70993472D01*
X100595765Y-71012560D01*
X100210000Y-71012560D01*
X99974683Y-71056838D01*
X99758559Y-71195910D01*
X99613569Y-71408110D01*
X99562560Y-71660000D01*
X99562560Y-73160000D01*
X99606838Y-73395317D01*
X99745910Y-73611441D01*
X99958110Y-73756431D01*
X99971197Y-73759081D01*
X99758559Y-73895910D01*
X99613569Y-74108110D01*
X99562560Y-74360000D01*
X99562560Y-75750132D01*
X99510327Y-75697808D01*
X99166799Y-75555162D01*
X99119923Y-75555121D01*
X98756880Y-75192078D01*
X98756880Y-74899580D01*
X98712602Y-74664263D01*
X98573530Y-74448139D01*
X98565341Y-74442544D01*
X98647767Y-74360118D01*
X98744440Y-74126729D01*
X98744440Y-73686730D01*
X98585690Y-73527980D01*
X97637000Y-73527980D01*
X97637000Y-73547980D01*
X97383000Y-73547980D01*
X97383000Y-73527980D01*
X96434310Y-73527980D01*
X96275560Y-73686730D01*
X96275560Y-74126729D01*
X96372233Y-74360118D01*
X96454445Y-74442331D01*
X96314129Y-74647690D01*
X96263120Y-74899580D01*
X96263120Y-76098460D01*
X96307398Y-76333777D01*
X96446470Y-76549901D01*
X96658670Y-76694891D01*
X96910560Y-76745900D01*
X98074064Y-76745900D01*
X98186883Y-77018943D01*
X98449673Y-77282192D01*
X98793201Y-77424838D01*
X99165167Y-77425162D01*
X99508943Y-77283117D01*
X99772192Y-77020327D01*
X99914838Y-76676799D01*
X99915056Y-76427013D01*
X99958110Y-76456431D01*
X100210000Y-76507440D01*
X101510000Y-76507440D01*
X101745317Y-76463162D01*
X101880577Y-76376124D01*
X101998110Y-76456431D01*
X102161797Y-76489578D01*
X102197852Y-76670839D01*
X102362599Y-76917401D01*
X102725198Y-77280000D01*
X102170000Y-77280000D01*
X101879161Y-77337852D01*
X101632599Y-77502599D01*
X99802599Y-79332599D01*
X99637852Y-79579161D01*
X99580000Y-79870000D01*
X99580000Y-80002560D01*
X99240000Y-80002560D01*
X99004683Y-80046838D01*
X98788559Y-80185910D01*
X98643569Y-80398110D01*
X98592560Y-80650000D01*
X98592560Y-81752560D01*
X97490000Y-81752560D01*
X97254683Y-81796838D01*
X97038559Y-81935910D01*
X97035764Y-81940000D01*
X95920004Y-81940000D01*
X95920004Y-73874804D01*
X95862152Y-73583965D01*
X95862152Y-73583964D01*
X95697405Y-73337403D01*
X95035233Y-72675231D01*
X96275560Y-72675231D01*
X96275560Y-73115230D01*
X96434310Y-73273980D01*
X97383000Y-73273980D01*
X97383000Y-72325290D01*
X97637000Y-72325290D01*
X97637000Y-73273980D01*
X98585690Y-73273980D01*
X98744440Y-73115230D01*
X98744440Y-72675231D01*
X98647767Y-72441842D01*
X98469139Y-72263213D01*
X98235750Y-72166540D01*
X97795750Y-72166540D01*
X97637000Y-72325290D01*
X97383000Y-72325290D01*
X97224250Y-72166540D01*
X96784250Y-72166540D01*
X96550861Y-72263213D01*
X96372233Y-72441842D01*
X96275560Y-72675231D01*
X95035233Y-72675231D01*
X94278918Y-71918916D01*
X94309271Y-71873489D01*
X94423345Y-71300000D01*
X94326873Y-70815000D01*
X94708808Y-70815000D01*
X94815910Y-70981441D01*
X95028110Y-71126431D01*
X95280000Y-71177440D01*
X95874958Y-71177440D01*
X95874838Y-71315167D01*
X96016883Y-71658943D01*
X96279673Y-71922192D01*
X96623201Y-72064838D01*
X96995167Y-72065162D01*
X97338943Y-71923117D01*
X97602192Y-71660327D01*
X97744838Y-71316799D01*
X97745001Y-71129851D01*
X97980000Y-71177440D01*
X99480000Y-71177440D01*
X99715317Y-71133162D01*
X99931441Y-70994090D01*
X100076431Y-70781890D01*
X100127440Y-70530000D01*
X100127440Y-70260000D01*
X100163486Y-70260000D01*
X100176115Y-70323489D01*
X100176115Y-70323489D01*
G37*
X100176115Y-70323489D02*
X100500971Y-70809670D01*
X100725501Y-70959697D01*
X100691726Y-70993472D01*
X100595765Y-71012560D01*
X100210000Y-71012560D01*
X99974683Y-71056838D01*
X99758559Y-71195910D01*
X99613569Y-71408110D01*
X99562560Y-71660000D01*
X99562560Y-73160000D01*
X99606838Y-73395317D01*
X99745910Y-73611441D01*
X99958110Y-73756431D01*
X99971197Y-73759081D01*
X99758559Y-73895910D01*
X99613569Y-74108110D01*
X99562560Y-74360000D01*
X99562560Y-75750132D01*
X99510327Y-75697808D01*
X99166799Y-75555162D01*
X99119923Y-75555121D01*
X98756880Y-75192078D01*
X98756880Y-74899580D01*
X98712602Y-74664263D01*
X98573530Y-74448139D01*
X98565341Y-74442544D01*
X98647767Y-74360118D01*
X98744440Y-74126729D01*
X98744440Y-73686730D01*
X98585690Y-73527980D01*
X97637000Y-73527980D01*
X97637000Y-73547980D01*
X97383000Y-73547980D01*
X97383000Y-73527980D01*
X96434310Y-73527980D01*
X96275560Y-73686730D01*
X96275560Y-74126729D01*
X96372233Y-74360118D01*
X96454445Y-74442331D01*
X96314129Y-74647690D01*
X96263120Y-74899580D01*
X96263120Y-76098460D01*
X96307398Y-76333777D01*
X96446470Y-76549901D01*
X96658670Y-76694891D01*
X96910560Y-76745900D01*
X98074064Y-76745900D01*
X98186883Y-77018943D01*
X98449673Y-77282192D01*
X98793201Y-77424838D01*
X99165167Y-77425162D01*
X99508943Y-77283117D01*
X99772192Y-77020327D01*
X99914838Y-76676799D01*
X99915056Y-76427013D01*
X99958110Y-76456431D01*
X100210000Y-76507440D01*
X101510000Y-76507440D01*
X101745317Y-76463162D01*
X101880577Y-76376124D01*
X101998110Y-76456431D01*
X102161797Y-76489578D01*
X102197852Y-76670839D01*
X102362599Y-76917401D01*
X102725198Y-77280000D01*
X102170000Y-77280000D01*
X101879161Y-77337852D01*
X101632599Y-77502599D01*
X99802599Y-79332599D01*
X99637852Y-79579161D01*
X99580000Y-79870000D01*
X99580000Y-80002560D01*
X99240000Y-80002560D01*
X99004683Y-80046838D01*
X98788559Y-80185910D01*
X98643569Y-80398110D01*
X98592560Y-80650000D01*
X98592560Y-81752560D01*
X97490000Y-81752560D01*
X97254683Y-81796838D01*
X97038559Y-81935910D01*
X97035764Y-81940000D01*
X95920004Y-81940000D01*
X95920004Y-73874804D01*
X95862152Y-73583965D01*
X95862152Y-73583964D01*
X95697405Y-73337403D01*
X95035233Y-72675231D01*
X96275560Y-72675231D01*
X96275560Y-73115230D01*
X96434310Y-73273980D01*
X97383000Y-73273980D01*
X97383000Y-72325290D01*
X97637000Y-72325290D01*
X97637000Y-73273980D01*
X98585690Y-73273980D01*
X98744440Y-73115230D01*
X98744440Y-72675231D01*
X98647767Y-72441842D01*
X98469139Y-72263213D01*
X98235750Y-72166540D01*
X97795750Y-72166540D01*
X97637000Y-72325290D01*
X97383000Y-72325290D01*
X97224250Y-72166540D01*
X96784250Y-72166540D01*
X96550861Y-72263213D01*
X96372233Y-72441842D01*
X96275560Y-72675231D01*
X95035233Y-72675231D01*
X94278918Y-71918916D01*
X94309271Y-71873489D01*
X94423345Y-71300000D01*
X94326873Y-70815000D01*
X94708808Y-70815000D01*
X94815910Y-70981441D01*
X95028110Y-71126431D01*
X95280000Y-71177440D01*
X95874958Y-71177440D01*
X95874838Y-71315167D01*
X96016883Y-71658943D01*
X96279673Y-71922192D01*
X96623201Y-72064838D01*
X96995167Y-72065162D01*
X97338943Y-71923117D01*
X97602192Y-71660327D01*
X97744838Y-71316799D01*
X97745001Y-71129851D01*
X97980000Y-71177440D01*
X99480000Y-71177440D01*
X99715317Y-71133162D01*
X99931441Y-70994090D01*
X100076431Y-70781890D01*
X100127440Y-70530000D01*
X100127440Y-70260000D01*
X100163486Y-70260000D01*
X100176115Y-70323489D01*
G36*
X124790000Y-69294092D02*
X124790000Y-78180854D01*
X124676890Y-78103569D01*
X124425000Y-78052560D01*
X123899641Y-78052560D01*
X124082192Y-77870327D01*
X124224838Y-77526799D01*
X124225162Y-77154833D01*
X124083117Y-76811057D01*
X123820327Y-76547808D01*
X123476799Y-76405162D01*
X123429923Y-76405121D01*
X123197401Y-76172599D01*
X122950839Y-76007852D01*
X122660000Y-75950000D01*
X119185044Y-75950000D01*
X119185162Y-75814833D01*
X119043117Y-75471057D01*
X118780327Y-75207808D01*
X118436799Y-75065162D01*
X118064833Y-75064838D01*
X117721057Y-75206883D01*
X117687882Y-75240000D01*
X117404802Y-75240000D01*
X118407401Y-74237401D01*
X118572148Y-73990839D01*
X118606115Y-73820077D01*
X118840000Y-73867440D01*
X119440000Y-73867440D01*
X119675317Y-73823162D01*
X119774528Y-73759322D01*
X119858110Y-73816431D01*
X120110000Y-73867440D01*
X120710000Y-73867440D01*
X120945317Y-73823162D01*
X121161441Y-73684090D01*
X121306431Y-73471890D01*
X121357440Y-73220000D01*
X121357440Y-71220000D01*
X121313162Y-70984683D01*
X121174090Y-70768559D01*
X120961890Y-70623569D01*
X120710000Y-70572560D01*
X120542362Y-70572560D01*
X119518199Y-69548397D01*
X119271637Y-69383650D01*
X118980798Y-69325798D01*
X116553798Y-69325798D01*
X114653600Y-67425600D01*
X114653600Y-66040000D01*
X114595748Y-65749161D01*
X114569582Y-65710000D01*
X121205908Y-65710000D01*
X124790000Y-69294092D01*
X124790000Y-69294092D01*
G37*
X124790000Y-69294092D02*
X124790000Y-78180854D01*
X124676890Y-78103569D01*
X124425000Y-78052560D01*
X123899641Y-78052560D01*
X124082192Y-77870327D01*
X124224838Y-77526799D01*
X124225162Y-77154833D01*
X124083117Y-76811057D01*
X123820327Y-76547808D01*
X123476799Y-76405162D01*
X123429923Y-76405121D01*
X123197401Y-76172599D01*
X122950839Y-76007852D01*
X122660000Y-75950000D01*
X119185044Y-75950000D01*
X119185162Y-75814833D01*
X119043117Y-75471057D01*
X118780327Y-75207808D01*
X118436799Y-75065162D01*
X118064833Y-75064838D01*
X117721057Y-75206883D01*
X117687882Y-75240000D01*
X117404802Y-75240000D01*
X118407401Y-74237401D01*
X118572148Y-73990839D01*
X118606115Y-73820077D01*
X118840000Y-73867440D01*
X119440000Y-73867440D01*
X119675317Y-73823162D01*
X119774528Y-73759322D01*
X119858110Y-73816431D01*
X120110000Y-73867440D01*
X120710000Y-73867440D01*
X120945317Y-73823162D01*
X121161441Y-73684090D01*
X121306431Y-73471890D01*
X121357440Y-73220000D01*
X121357440Y-71220000D01*
X121313162Y-70984683D01*
X121174090Y-70768559D01*
X120961890Y-70623569D01*
X120710000Y-70572560D01*
X120542362Y-70572560D01*
X119518199Y-69548397D01*
X119271637Y-69383650D01*
X118980798Y-69325798D01*
X116553798Y-69325798D01*
X114653600Y-67425600D01*
X114653600Y-66040000D01*
X114595748Y-65749161D01*
X114569582Y-65710000D01*
X121205908Y-65710000D01*
X124790000Y-69294092D01*
G36*
X110377000Y-72093000D02*
X110397000Y-72093000D01*
X110397000Y-72347000D01*
X110377000Y-72347000D01*
X110377000Y-73696250D01*
X110535750Y-73855000D01*
X110676310Y-73855000D01*
X110893122Y-73765194D01*
X110968110Y-73816431D01*
X111220000Y-73867440D01*
X111820000Y-73867440D01*
X112046859Y-73824754D01*
X112050063Y-73840864D01*
X112057727Y-73943409D01*
X112078748Y-73985070D01*
X112087852Y-74030839D01*
X112144984Y-74116343D01*
X112191309Y-74208155D01*
X112226674Y-74238602D01*
X112252599Y-74277401D01*
X112338099Y-74334530D01*
X112397785Y-74385916D01*
X112456883Y-74528943D01*
X112719673Y-74792192D01*
X113063201Y-74934838D01*
X113435167Y-74935162D01*
X113778943Y-74793117D01*
X114042192Y-74530327D01*
X114165152Y-74234207D01*
X114164838Y-74595167D01*
X114240125Y-74777377D01*
X114227808Y-74789673D01*
X114085162Y-75133201D01*
X114085069Y-75240000D01*
X112800944Y-75240000D01*
X112793117Y-75221057D01*
X112530327Y-74957808D01*
X112186799Y-74815162D01*
X111814833Y-74814838D01*
X111471057Y-74956883D01*
X111207808Y-75219673D01*
X111065162Y-75563201D01*
X111064838Y-75935167D01*
X111206883Y-76278943D01*
X111469673Y-76542192D01*
X111813201Y-76684838D01*
X111933410Y-76684943D01*
X111959160Y-76702148D01*
X112250000Y-76760000D01*
X112577638Y-76760000D01*
X112487808Y-76849673D01*
X112345162Y-77193201D01*
X112345086Y-77280000D01*
X104728083Y-77280000D01*
X104768943Y-77263117D01*
X105032192Y-77000327D01*
X105174838Y-76656799D01*
X105174879Y-76609923D01*
X105277362Y-76507440D01*
X105520000Y-76507440D01*
X105755317Y-76463162D01*
X105867215Y-76391158D01*
X105948110Y-76446431D01*
X106200000Y-76497440D01*
X107500000Y-76497440D01*
X107735317Y-76453162D01*
X107951441Y-76314090D01*
X108096431Y-76101890D01*
X108147440Y-75850000D01*
X108147440Y-74350000D01*
X108103162Y-74114683D01*
X107964090Y-73898559D01*
X107751890Y-73753569D01*
X107738803Y-73750919D01*
X107951441Y-73614090D01*
X108096431Y-73401890D01*
X108147440Y-73150000D01*
X108147440Y-73077692D01*
X108357401Y-72937401D01*
X108689680Y-72605122D01*
X108735167Y-72605162D01*
X109078943Y-72463117D01*
X109315000Y-72227472D01*
X109315000Y-72347002D01*
X109473748Y-72347002D01*
X109315000Y-72505750D01*
X109315000Y-73346309D01*
X109411673Y-73579698D01*
X109590301Y-73758327D01*
X109823690Y-73855000D01*
X109964250Y-73855000D01*
X110123000Y-73696250D01*
X110123000Y-72347000D01*
X110103000Y-72347000D01*
X110103000Y-72093000D01*
X110123000Y-72093000D01*
X110123000Y-72073000D01*
X110377000Y-72073000D01*
X110377000Y-72093000D01*
X110377000Y-72093000D01*
G37*
X110377000Y-72093000D02*
X110397000Y-72093000D01*
X110397000Y-72347000D01*
X110377000Y-72347000D01*
X110377000Y-73696250D01*
X110535750Y-73855000D01*
X110676310Y-73855000D01*
X110893122Y-73765194D01*
X110968110Y-73816431D01*
X111220000Y-73867440D01*
X111820000Y-73867440D01*
X112046859Y-73824754D01*
X112050063Y-73840864D01*
X112057727Y-73943409D01*
X112078748Y-73985070D01*
X112087852Y-74030839D01*
X112144984Y-74116343D01*
X112191309Y-74208155D01*
X112226674Y-74238602D01*
X112252599Y-74277401D01*
X112338099Y-74334530D01*
X112397785Y-74385916D01*
X112456883Y-74528943D01*
X112719673Y-74792192D01*
X113063201Y-74934838D01*
X113435167Y-74935162D01*
X113778943Y-74793117D01*
X114042192Y-74530327D01*
X114165152Y-74234207D01*
X114164838Y-74595167D01*
X114240125Y-74777377D01*
X114227808Y-74789673D01*
X114085162Y-75133201D01*
X114085069Y-75240000D01*
X112800944Y-75240000D01*
X112793117Y-75221057D01*
X112530327Y-74957808D01*
X112186799Y-74815162D01*
X111814833Y-74814838D01*
X111471057Y-74956883D01*
X111207808Y-75219673D01*
X111065162Y-75563201D01*
X111064838Y-75935167D01*
X111206883Y-76278943D01*
X111469673Y-76542192D01*
X111813201Y-76684838D01*
X111933410Y-76684943D01*
X111959160Y-76702148D01*
X112250000Y-76760000D01*
X112577638Y-76760000D01*
X112487808Y-76849673D01*
X112345162Y-77193201D01*
X112345086Y-77280000D01*
X104728083Y-77280000D01*
X104768943Y-77263117D01*
X105032192Y-77000327D01*
X105174838Y-76656799D01*
X105174879Y-76609923D01*
X105277362Y-76507440D01*
X105520000Y-76507440D01*
X105755317Y-76463162D01*
X105867215Y-76391158D01*
X105948110Y-76446431D01*
X106200000Y-76497440D01*
X107500000Y-76497440D01*
X107735317Y-76453162D01*
X107951441Y-76314090D01*
X108096431Y-76101890D01*
X108147440Y-75850000D01*
X108147440Y-74350000D01*
X108103162Y-74114683D01*
X107964090Y-73898559D01*
X107751890Y-73753569D01*
X107738803Y-73750919D01*
X107951441Y-73614090D01*
X108096431Y-73401890D01*
X108147440Y-73150000D01*
X108147440Y-73077692D01*
X108357401Y-72937401D01*
X108689680Y-72605122D01*
X108735167Y-72605162D01*
X109078943Y-72463117D01*
X109315000Y-72227472D01*
X109315000Y-72347002D01*
X109473748Y-72347002D01*
X109315000Y-72505750D01*
X109315000Y-73346309D01*
X109411673Y-73579698D01*
X109590301Y-73758327D01*
X109823690Y-73855000D01*
X109964250Y-73855000D01*
X110123000Y-73696250D01*
X110123000Y-72347000D01*
X110103000Y-72347000D01*
X110103000Y-72093000D01*
X110123000Y-72093000D01*
X110123000Y-72073000D01*
X110377000Y-72073000D01*
X110377000Y-72093000D01*
G36*
X92867000Y-76253000D02*
X92887000Y-76253000D01*
X92887000Y-76507000D01*
X92867000Y-76507000D01*
X92867000Y-76527000D01*
X92613000Y-76527000D01*
X92613000Y-76507000D01*
X92593000Y-76507000D01*
X92593000Y-76253000D01*
X92613000Y-76253000D01*
X92613000Y-76233000D01*
X92867000Y-76233000D01*
X92867000Y-76253000D01*
X92867000Y-76253000D01*
G37*
X92867000Y-76253000D02*
X92887000Y-76253000D01*
X92887000Y-76507000D01*
X92867000Y-76507000D01*
X92867000Y-76527000D01*
X92613000Y-76527000D01*
X92613000Y-76507000D01*
X92593000Y-76507000D01*
X92593000Y-76253000D01*
X92613000Y-76253000D01*
X92613000Y-76233000D01*
X92867000Y-76233000D01*
X92867000Y-76253000D01*
G36*
X103027000Y-72283000D02*
X104743000Y-72283000D01*
X104743000Y-72263000D01*
X104997000Y-72263000D01*
X104997000Y-72283000D01*
X105017000Y-72283000D01*
X105017000Y-72537000D01*
X104997000Y-72537000D01*
X104997000Y-72557000D01*
X104743000Y-72557000D01*
X104743000Y-72537000D01*
X103027000Y-72537000D01*
X103027000Y-72557000D01*
X102773000Y-72557000D01*
X102773000Y-72537000D01*
X102753000Y-72537000D01*
X102753000Y-72283000D01*
X102773000Y-72283000D01*
X102773000Y-72263000D01*
X103027000Y-72263000D01*
X103027000Y-72283000D01*
X103027000Y-72283000D01*
G37*
X103027000Y-72283000D02*
X104743000Y-72283000D01*
X104743000Y-72263000D01*
X104997000Y-72263000D01*
X104997000Y-72283000D01*
X105017000Y-72283000D01*
X105017000Y-72537000D01*
X104997000Y-72537000D01*
X104997000Y-72557000D01*
X104743000Y-72557000D01*
X104743000Y-72537000D01*
X103027000Y-72537000D01*
X103027000Y-72557000D01*
X102773000Y-72557000D01*
X102773000Y-72537000D01*
X102753000Y-72537000D01*
X102753000Y-72283000D01*
X102773000Y-72283000D01*
X102773000Y-72263000D01*
X103027000Y-72263000D01*
X103027000Y-72283000D01*
G36*
X92732560Y-67098832D02*
X92471057Y-67206883D01*
X92207808Y-67469673D01*
X92065162Y-67813201D01*
X92064838Y-68185167D01*
X92206883Y-68528943D01*
X92469673Y-68792192D01*
X92745000Y-68906518D01*
X92745000Y-69144250D01*
X92903750Y-69303000D01*
X93903000Y-69303000D01*
X93903000Y-69283000D01*
X94157000Y-69283000D01*
X94157000Y-69303000D01*
X94177000Y-69303000D01*
X94177000Y-69557000D01*
X94157000Y-69557000D01*
X94157000Y-69577000D01*
X93903000Y-69577000D01*
X93903000Y-69557000D01*
X92903750Y-69557000D01*
X92745000Y-69715750D01*
X92745000Y-69801400D01*
X92555255Y-69801400D01*
X91981766Y-69915474D01*
X91710000Y-70097062D01*
X91710000Y-67544092D01*
X92732560Y-66521531D01*
X92732560Y-67098832D01*
X92732560Y-67098832D01*
G37*
X92732560Y-67098832D02*
X92471057Y-67206883D01*
X92207808Y-67469673D01*
X92065162Y-67813201D01*
X92064838Y-68185167D01*
X92206883Y-68528943D01*
X92469673Y-68792192D01*
X92745000Y-68906518D01*
X92745000Y-69144250D01*
X92903750Y-69303000D01*
X93903000Y-69303000D01*
X93903000Y-69283000D01*
X94157000Y-69283000D01*
X94157000Y-69303000D01*
X94177000Y-69303000D01*
X94177000Y-69557000D01*
X94157000Y-69557000D01*
X94157000Y-69577000D01*
X93903000Y-69577000D01*
X93903000Y-69557000D01*
X92903750Y-69557000D01*
X92745000Y-69715750D01*
X92745000Y-69801400D01*
X92555255Y-69801400D01*
X91981766Y-69915474D01*
X91710000Y-70097062D01*
X91710000Y-67544092D01*
X92732560Y-66521531D01*
X92732560Y-67098832D01*
G36*
X106797000Y-67083000D02*
X106817000Y-67083000D01*
X106817000Y-67337000D01*
X106797000Y-67337000D01*
X106797000Y-69623000D01*
X106817000Y-69623000D01*
X106817000Y-69877000D01*
X106797000Y-69877000D01*
X106797000Y-69897000D01*
X106543000Y-69897000D01*
X106543000Y-69877000D01*
X106523000Y-69877000D01*
X106523000Y-69623000D01*
X106543000Y-69623000D01*
X106543000Y-67337000D01*
X106523000Y-67337000D01*
X106523000Y-67083000D01*
X106543000Y-67083000D01*
X106543000Y-67063000D01*
X106797000Y-67063000D01*
X106797000Y-67083000D01*
X106797000Y-67083000D01*
G37*
X106797000Y-67083000D02*
X106817000Y-67083000D01*
X106817000Y-67337000D01*
X106797000Y-67337000D01*
X106797000Y-69623000D01*
X106817000Y-69623000D01*
X106817000Y-69877000D01*
X106797000Y-69877000D01*
X106797000Y-69897000D01*
X106543000Y-69897000D01*
X106543000Y-69877000D01*
X106523000Y-69877000D01*
X106523000Y-69623000D01*
X106543000Y-69623000D01*
X106543000Y-67337000D01*
X106523000Y-67337000D01*
X106523000Y-67083000D01*
X106543000Y-67083000D01*
X106543000Y-67063000D01*
X106797000Y-67063000D01*
X106797000Y-67083000D01*
G36*
X100176115Y-67783489D02*
X100500971Y-68269670D01*
X100815752Y-68480000D01*
X100500971Y-68690330D01*
X100467783Y-68740000D01*
X100115000Y-68740000D01*
X100115000Y-68485750D01*
X99956250Y-68327000D01*
X98857000Y-68327000D01*
X98857000Y-68347000D01*
X98603000Y-68347000D01*
X98603000Y-68327000D01*
X98583000Y-68327000D01*
X98583000Y-68073000D01*
X98603000Y-68073000D01*
X98603000Y-68053000D01*
X98857000Y-68053000D01*
X98857000Y-68073000D01*
X99956250Y-68073000D01*
X100115000Y-67914250D01*
X100115000Y-67476243D01*
X100176115Y-67783489D01*
X100176115Y-67783489D01*
G37*
X100176115Y-67783489D02*
X100500971Y-68269670D01*
X100815752Y-68480000D01*
X100500971Y-68690330D01*
X100467783Y-68740000D01*
X100115000Y-68740000D01*
X100115000Y-68485750D01*
X99956250Y-68327000D01*
X98857000Y-68327000D01*
X98857000Y-68347000D01*
X98603000Y-68347000D01*
X98603000Y-68327000D01*
X98583000Y-68327000D01*
X98583000Y-68073000D01*
X98603000Y-68073000D01*
X98603000Y-68053000D01*
X98857000Y-68053000D01*
X98857000Y-68073000D01*
X99956250Y-68073000D01*
X100115000Y-67914250D01*
X100115000Y-67476243D01*
X100176115Y-67783489D01*
M02*
