M48
;DRILL file {KiCad 4.0.4+e1-6308~48~ubuntu16.04.1-stable} date Thu Nov 17 20:36:32 2016
;FORMAT={-:-/ absolute / metric / decimal}
FMAT,2
METRIC,TZ
T1C0.400
T2C0.600
T3C0.762
T4C1.016
%
G90
G05
M71
T1
X89.08Y-94.57
X91.31Y-103.96
X94.37Y-90.49
X95.05Y-99.44
X97.68Y-102.15
X98.24Y-95.67
X98.73Y-89.45
X98.76Y-91.63
X100.23Y-88.3
X100.28Y-83.67
X100.36Y-91.36
X101.11Y-95.92
X101.31Y-91.7
X101.8Y-82.94
X101.9Y-85.78
X101.99Y-77.3
X102.82Y-77.39
X102.95Y-87.66
X102.99Y-86.84
X103.63Y-88.15
X103.67Y-77.15
X104.24Y-76.47
X104.32Y-88.66
X104.74Y-97.19
X105.Y-84.54
X105.08Y-83.55
X105.92Y-81.61
X106.64Y-81.08
X108.55Y-82.64
X108.81Y-83.6
X109.22Y-95.33
X109.61Y-94.56
X110.19Y-73.99
X112.17Y-73.72
X114.08Y-95.44
X114.41Y-94.64
X114.45Y-77.27
X114.49Y-76.47
X114.64Y-83.88
X114.65Y-91.9
X115.06Y-75.44
X115.56Y-74.56
X116.9Y-70.15
X118.49Y-85.12
X119.71Y-77.38
X123.29Y-77.34
X124.74Y-84.96
T2
X123.01Y-99.79
X124.28Y-98.52
X124.28Y-101.06
T3
X120.54Y-89.7
X120.54Y-93.7
X124.54Y-87.7
X124.54Y-91.7
T4
X92.74Y-71.3
X92.74Y-73.84
X92.74Y-76.38
X92.74Y-78.92
X92.74Y-81.46
X101.84Y-100.46
X101.84Y-103.
X102.84Y-65.26
X102.84Y-67.8
X104.38Y-100.46
X104.38Y-103.
X105.38Y-65.26
X105.38Y-67.8
X106.92Y-100.46
X106.92Y-103.
X107.92Y-65.26
X107.92Y-67.8
X109.46Y-100.46
X109.46Y-103.
X110.46Y-65.26
X110.46Y-67.8
X112.Y-100.46
X112.Y-103.
X113.Y-65.26
X113.Y-67.8
T0
M30
